<svg width="64" height="58" viewBox="0 0 64 58" fill="none" xmlns="http://www.w3.org/2000/svg">
<path d="M48.9662 13.6731C48.9662 15.6021 47.5546 16.7753 46.5239 17.6362C46.1336 17.9623 45.407 18.5573 45.409 18.7795C45.416 19.6513 44.7115 20.3475 43.8351 20.3475C43.8307 20.3475 43.8262 20.3475 43.8218 20.3475C42.9516 20.3475 42.2425 19.6727 42.2354 18.8053C42.2215 17.0956 43.4756 16.0717 44.4833 15.2299C45.2741 14.5693 45.7926 14.1044 45.7926 13.6791C45.7926 12.818 45.0884 12.1174 44.2229 12.1174C43.3571 12.1174 42.6527 12.818 42.6527 13.6791C42.6527 14.551 41.9424 15.2578 41.066 15.2578C40.1895 15.2578 39.4792 14.551 39.4792 13.6791C39.4792 11.077 41.6071 8.95999 44.2226 8.95999C46.8383 8.95982 48.9662 11.0709 48.9662 13.6731ZM43.8657 21.8048C42.9893 21.8048 42.314 22.5115 42.314 23.3835V23.3956C42.314 24.2676 42.9895 24.9684 43.8657 24.9684C44.742 24.9684 45.4525 24.2555 45.4525 23.3835C45.4525 22.5115 44.7422 21.8048 43.8657 21.8048ZM11.8818 32.8019C11.0054 32.8019 10.295 33.5086 10.295 34.3806C10.295 35.2525 11.0054 35.9593 11.8818 35.9593H12.014C12.8904 35.9593 13.6008 35.2525 13.6008 34.3806C13.6008 33.5086 12.8904 32.8019 12.014 32.8019H11.8818ZM17.3965 32.8019C16.5201 32.8019 15.8098 33.5086 15.8098 34.3806C15.8098 35.2525 16.5201 35.9593 17.3965 35.9593H17.5286C18.405 35.9593 19.1154 35.2525 19.1154 34.3806C19.1154 33.5086 18.405 32.8019 17.5286 32.8019H17.3965ZM64 7.5867V25.356C64 29.5632 60.6092 32.9773 56.3805 32.9773H35.8023C35.3999 32.9773 35.0686 32.975 34.7915 32.9692C34.5011 32.9632 34.1742 32.961 34.0468 32.975C33.914 33.0627 33.5885 33.3593 33.2749 33.6468C33.1506 33.7607 33.0099 33.8859 32.8581 34.0238L27.036 39.3033C26.5716 39.7248 25.8846 39.8339 25.3094 39.5817C24.7343 39.3293 24.3306 38.7627 24.3306 38.1373V21.4001H7.70821C5.22896 21.4001 3.17355 23.4214 3.17355 25.8877V43.657C3.17355 46.1235 5.22914 48.0626 7.70821 48.0626H30.6943C31.0901 48.0626 31.4603 48.2435 31.7526 48.509L36.4959 52.8599V37.8554C36.4959 36.9835 37.2062 36.2768 38.0826 36.2768C38.9591 36.2768 39.6694 36.9835 39.6694 37.8554V56.4381C39.6694 57.0635 39.3098 57.6216 38.7345 57.8741C38.5287 57.9644 38.3221 58 38.1057 58C37.7172 58 37.3339 57.8413 37.0357 57.5704L30.0791 51.2198H7.70821C3.47927 51.2198 0 47.8642 0 43.6568V25.8877C0 21.6805 3.47927 18.2427 7.70821 18.2427H24.3306V7.5867C24.3306 3.37929 27.8365 0 32.0654 0H56.3806C60.6092 0 64 3.37929 64 7.5867ZM60.8264 7.5867C60.8264 5.12025 58.8594 3.1574 56.3805 3.1574H32.0654C29.5863 3.1574 27.5041 5.12025 27.5041 7.5867V19.8362V34.5591L30.6944 31.6906C30.8422 31.5564 31.0077 31.4337 31.1285 31.3228C32.5853 29.9872 32.9581 29.7737 34.8583 29.8127C35.1175 29.8181 35.4262 29.82 35.8023 29.82H56.3805C58.8594 29.82 60.8264 27.8225 60.8264 25.3562V7.5867Z" fill="#FEB409"/>
</svg>
