<svg width="72" height="60" viewBox="0 0 72 60" fill="none" xmlns="http://www.w3.org/2000/svg">
<path d="M70.1118 23.7488C70.3216 23.9137 70.5766 23.9984 70.8339 23.9984C71.0071 23.9984 71.1811 23.96 71.3428 23.8817C71.7448 23.6871 72 23.2804 72 22.8346V16.6274C72 16.2708 71.8363 15.9339 71.5556 15.7133L52.5682 0.785187C51.2366 -0.261807 49.3766 -0.261651 48.045 0.785187L40.8985 6.40391V4.21309C40.8985 3.57034 40.3763 3.04925 39.7322 3.04925H34.7559C34.1118 3.04925 33.5896 3.57034 33.5896 4.21309V12.1504L29.0578 15.7133C28.7771 15.9339 28.6134 16.2708 28.6134 16.6274V22.8346C28.6134 23.2804 28.8686 23.6871 29.2706 23.8817C29.6724 24.0763 30.1506 24.0248 30.5016 23.7489L31.1015 23.2772V34.6186L20.2227 26.0656C18.8911 25.0186 17.031 25.0186 15.6994 26.0656L0.444441 38.0591C0.163749 38.2796 0 38.6166 0 38.9732V45.1804C0 45.6262 0.255188 46.0329 0.657175 46.2275C0.818903 46.3059 0.992916 46.3442 1.16615 46.3442C1.42321 46.3442 1.67839 46.2595 1.88817 46.0946L2.48812 45.6228V57.6723H1.16631C0.522194 57.6723 0 58.1934 0 58.8362C0 59.4789 0.522194 60 1.16631 60H70.8337C71.4778 60 72 59.4789 72 58.8362C72 58.1934 71.4778 57.6723 70.8337 57.6723H69.5119V23.277L70.1118 23.7488ZM35.9222 5.37694H38.5659V8.23798L35.9222 10.3164V5.37694ZM30.946 17.1921L49.4887 2.61366C49.9703 2.23503 50.6432 2.23503 51.1248 2.61366L69.6674 17.1921V20.4358L51.0286 5.7818C50.8169 5.61529 50.5619 5.53212 50.3067 5.53212C50.0515 5.53212 49.7966 5.61529 49.5848 5.7818L30.946 20.4358V17.1921ZM2.33261 39.5379L17.1432 27.8937C17.6248 27.5151 18.2976 27.5151 18.7792 27.8937L31.1015 37.5817V40.8256L18.683 31.0619C18.2595 30.7289 17.6627 30.7289 17.2394 31.0619L2.33261 42.7818V39.5379ZM4.82073 43.7889L17.9611 33.4578L31.1015 43.7891V57.6725H25.9698V43.9391C25.9698 43.2964 25.4476 42.7753 24.8035 42.7753H11.1188C10.4747 42.7753 9.95248 43.2964 9.95248 43.9391V57.6725H4.82073V43.7889ZM12.2851 50.0685H23.6371V52.7066H12.2851V50.0685ZM23.6371 47.7408H12.2851V45.1028H23.6371V47.7408ZM12.2851 55.0343H23.6371V57.6723H12.2851V55.0343ZM46.0302 48.9862C46.0044 48.9845 45.9785 48.9823 45.9525 48.9823C45.6461 48.9823 45.3445 49.1064 45.1283 49.3237C44.9106 49.5394 44.7862 49.8404 44.7862 50.1461C44.7862 50.4518 44.9106 50.7529 45.1283 50.9686C45.3445 51.1858 45.6461 51.31 45.9525 51.31C45.9785 51.31 46.0044 51.3078 46.0302 51.3061V57.6723H40.8985V42.6199H46.0302V48.9862ZM67.1793 57.6723H48.3629V41.4561C48.3629 40.8133 47.8407 40.2922 47.1965 40.2922H39.7322C39.0881 40.2922 38.5659 40.8133 38.5659 41.4561V57.6723H33.4341V21.4431L50.3067 8.17761L67.1793 21.4431V57.6723Z" fill="#FEB409"/>
<path d="M53.4168 52.5511H60.8812C61.5253 52.5511 62.0475 52.0301 62.0475 51.3873V41.4558C62.0475 40.8131 61.5253 40.292 60.8812 40.292H53.4168C52.7727 40.292 52.2505 40.8131 52.2505 41.4558V51.3873C52.2505 52.0301 52.7727 52.5511 53.4168 52.5511ZM54.5831 50.2235V46.344H59.7149V50.2235H54.5831ZM59.7149 42.6197V44.0163H54.5831V42.6197H59.7149Z" fill="#FEB409"/>
<path d="M53.4168 35.1718H60.8812C61.5253 35.1718 62.0475 34.6507 62.0475 34.0079V24.0764C62.0475 23.4337 61.5253 22.9126 60.8812 22.9126H53.4168C52.7727 22.9126 52.2505 23.4337 52.2505 24.0764V34.0079C52.2505 34.6507 52.7727 35.1718 53.4168 35.1718ZM54.5831 32.8441V28.9646H59.7149V32.8441H54.5831ZM59.7149 25.2403V26.6369H54.5831V25.2403H59.7149Z" fill="#FEB409"/>
<path d="M47.1966 22.9126H39.7322C39.0881 22.9126 38.5659 23.4337 38.5659 24.0764V34.0079C38.5659 34.6507 39.0881 35.1718 39.7322 35.1718H47.1966C47.8407 35.1718 48.3629 34.6507 48.3629 34.0079V24.0764C48.3629 23.4337 47.8407 22.9126 47.1966 22.9126ZM46.0303 25.2403V26.6369H40.8985V25.2403H46.0303ZM40.8985 32.8441V28.9646H46.0303V32.8441H40.8985Z" fill="#FEB409"/>
</svg>
