<svg width="60" height="60" viewBox="0 0 60 60" fill="none" xmlns="http://www.w3.org/2000/svg">
<path d="M9.96859 53.3121C9.75073 53.094 9.44838 52.9688 9.14017 52.9688C8.83196 52.9688 8.5296 53.094 8.31163 53.3121C8.09366 53.5302 7.96826 53.8324 7.96826 54.1406C7.96826 54.4488 8.09354 54.7512 8.31163 54.969C8.5296 55.187 8.83196 55.3125 9.14017 55.3125C9.44838 55.3125 9.75073 55.1871 9.96859 54.969C10.1866 54.7512 10.3121 54.4488 10.3121 54.1406C10.3121 53.8324 10.1867 53.5301 9.96859 53.3121Z" fill="#FEB409"/>
<path d="M55.0229 21.4381C54.8049 21.22 54.5037 21.0947 54.1944 21.0947C53.8862 21.0947 53.5838 21.22 53.3658 21.4381C53.148 21.6561 53.0225 21.9584 53.0225 22.2666C53.0225 22.5748 53.1479 22.8771 53.3658 23.095C53.5838 23.313 53.8862 23.4385 54.1944 23.4385C54.5037 23.4385 54.8049 23.3131 55.0229 23.095C55.2419 22.8771 55.3673 22.5748 55.3673 22.2666C55.3673 21.9584 55.2419 21.6561 55.0229 21.4381Z" fill="#FEB409"/>
<path d="M59.6567 0.343242C59.4369 0.123515 59.1388 0 58.8279 0L29.9997 0.00152343C29.3526 0.00152343 28.8279 0.526288 28.8279 1.1734V4.5246L17.7196 7.50104C17.0943 7.66862 16.7233 8.31116 16.8909 8.93623L22.6481 30.4216L17.6676 35.4019C17.0338 34.4764 15.9694 33.8677 14.7655 33.8677H3.5156C1.57703 33.8677 0 35.4448 0 37.3832V56.4843C0 58.4228 1.57703 59.9999 3.5156 59.9999H14.7656C16.4125 59.9999 17.798 58.8613 18.1776 57.3304L19.571 58.5455C20.6467 59.4834 22.0249 60 23.4522 60H58.8281C59.4752 60 60 59.4752 60 58.8281V1.17187C59.9998 0.861092 59.8765 0.562968 59.6567 0.343242ZM15.9373 56.4844C15.9373 57.1304 15.4116 57.6563 14.7654 57.6563H3.51548C2.86929 57.6563 2.34358 57.1306 2.34358 56.4844V37.3833C2.34358 36.7372 2.86929 36.2115 3.51548 36.2115H7.9686V49.7108C7.9686 50.358 8.49338 50.8827 9.1405 50.8827C9.78763 50.8827 10.3124 50.358 10.3124 49.7108V36.2115H14.7655C15.4117 36.2115 15.9374 36.7372 15.9374 37.3833V56.4844H15.9373ZM19.4581 9.46158L28.8279 6.95096V11.2933L28.0425 11.5038C27.7421 11.5843 27.4863 11.7806 27.3309 12.0498C27.1755 12.319 27.1333 12.6388 27.2139 12.939C27.6642 14.6196 26.6633 16.3531 24.9827 16.8035C24.6821 16.8841 24.4258 17.0807 24.2705 17.3505C24.1152 17.6202 24.0734 17.9406 24.1546 18.241L28.7226 35.1556H26.3706L25.1584 30.4137C25.1199 30.2628 25.0524 30.1237 24.962 30.0028L19.4581 9.46158ZM28.8279 16.6674V26.5558L26.6905 18.6416C27.5834 18.1806 28.314 17.4908 28.8279 16.6674ZM45.664 57.6561H23.4519C22.5912 57.6561 21.7599 57.3447 21.1112 56.779L18.2811 54.3109V38.1031L23.3974 32.9869L24.3253 36.6174C24.458 37.1362 24.9252 37.499 25.4607 37.499L48.5008 37.5004C49.4055 37.5004 50.1415 38.2363 50.1415 39.141C50.1415 40.0457 49.4055 40.7816 48.5008 40.7816H36.695C36.0479 40.7816 35.5231 41.3064 35.5231 41.9535C35.5231 42.6006 36.0479 43.1254 36.695 43.1254H52.1689C53.0736 43.1254 53.8095 43.8613 53.8095 44.766C53.8095 45.6707 53.0736 46.4066 52.1689 46.4066H36.695C36.0479 46.4066 35.5231 46.9314 35.5231 47.5785C35.5231 48.2256 36.0479 48.7504 36.695 48.7504H49.6613C50.5661 48.7504 51.302 49.4863 51.302 50.391C51.302 51.2957 50.5661 52.0316 49.6613 52.0316H36.695C36.0479 52.0316 35.5231 52.5564 35.5231 53.2035C35.5231 53.8506 36.0479 54.3754 36.695 54.3754H45.664C46.5687 54.3754 47.3046 55.1113 47.3046 56.016C47.3045 56.9202 46.5686 57.6561 45.664 57.6561ZM57.6562 57.6561H57.6561H49.2935C49.5207 57.1554 49.6483 56.6003 49.6483 56.0155C49.6483 55.4308 49.5207 54.8756 49.2935 54.3749H49.6613C51.8583 54.3749 53.6457 52.5876 53.6457 50.3906C53.6457 49.7499 53.4928 49.1444 53.2228 48.6074C54.9098 48.144 56.1531 46.5978 56.1531 44.7658C56.1531 43.877 55.8604 43.0554 55.3666 42.3921V27.5398C55.3666 26.8927 54.8419 26.368 54.1947 26.368C53.5476 26.368 53.0228 26.8927 53.0228 27.5398V40.8748C52.7474 40.8145 52.4618 40.7816 52.1686 40.7816H52.1302C52.3574 40.2809 52.485 39.7258 52.485 39.141C52.485 36.944 50.6977 35.1568 48.5007 35.1568H46.6168C48.6172 34.299 50.0221 32.3108 50.0221 29.9999C50.0221 26.9075 47.5062 24.3916 44.4137 24.3916C41.3212 24.3916 38.8053 26.9075 38.8053 29.9999C38.8053 32.3108 40.2103 34.299 42.2105 35.1568H35.8045V12.8745C37.898 12.4183 39.5499 10.7666 40.006 8.67303H48.8212C49.2773 10.7666 50.9292 12.4183 53.0227 12.8745V16.5179C53.0227 17.165 53.5475 17.6898 54.1946 17.6898C54.8417 17.6898 55.3665 17.165 55.3665 16.5179V11.8283C55.3665 11.1812 54.8417 10.6564 54.1946 10.6564C52.4547 10.6564 51.0394 9.24092 51.0394 7.50116C51.0394 6.85405 50.5146 6.32928 49.8675 6.32928H38.9599C38.3127 6.32928 37.788 6.85405 37.788 7.50116C37.788 9.24104 36.3725 10.6564 34.6327 10.6564C33.9856 10.6564 33.4608 11.1812 33.4608 11.8283V35.1567H31.1718V2.34503L57.6562 2.34375V57.6561ZM44.4139 33.2645C42.6137 33.2645 41.1493 31.8001 41.1493 30.0001C41.1493 28.2001 42.6139 26.7355 44.4139 26.7355C46.2139 26.7355 47.6785 28.1999 47.6785 29.9999C47.6785 31.7999 46.2141 33.2645 44.4139 33.2645Z" fill="#FEB409"/>
</svg>
