<svg width="62" height="61" viewBox="0 0 62 61" fill="none" xmlns="http://www.w3.org/2000/svg">
<path d="M46.5 0H1.03333C0.462675 0 0 0.462928 0 1.0339V59.9661C0 60.5371 0.462675 61 1.03333 61H46.5C47.0707 61 47.5333 60.5371 47.5333 59.9661V1.0339C47.5333 0.462928 47.0707 0 46.5 0ZM45.4667 58.9322H2.06667V2.0678H45.4667V58.9322Z" fill="#FEB409"/>
<path d="M28.9331 10.3389H18.5997C18.0291 10.3389 17.5664 10.8018 17.5664 11.3728C17.5664 11.9437 18.0291 12.4067 18.5997 12.4067H28.9331C29.5037 12.4067 29.9664 11.9437 29.9664 11.3728C29.9664 10.8018 29.5037 10.3389 28.9331 10.3389Z" fill="#FEB409"/>
<path d="M15.4999 22.7461H9.29993C8.72928 22.7461 8.2666 23.209 8.2666 23.78C8.2666 24.351 8.72928 24.8139 9.29993 24.8139H15.4999C16.0706 24.8139 16.5333 24.351 16.5333 23.78C16.5333 23.209 16.0706 22.7461 15.4999 22.7461Z" fill="#FEB409"/>
<path d="M42.3668 22.7461H19.6334C19.0628 22.7461 18.6001 23.209 18.6001 23.78C18.6001 24.351 19.0628 24.8139 19.6334 24.8139H42.3668C42.9374 24.8139 43.4001 24.351 43.4001 23.78C43.4001 23.209 42.9374 22.7461 42.3668 22.7461Z" fill="#FEB409"/>
<path d="M42.3666 26.8813H5.16663C4.59598 26.8813 4.1333 27.3443 4.1333 27.9152C4.1333 28.4862 4.59598 28.9491 5.16663 28.9491H42.3666C42.9373 28.9491 43.4 28.4862 43.4 27.9152C43.4 27.3443 42.9373 26.8813 42.3666 26.8813Z" fill="#FEB409"/>
<path d="M32.0333 31.0171H5.16663C4.59598 31.0171 4.1333 31.48 4.1333 32.051C4.1333 32.622 4.59598 33.0849 5.16663 33.0849H32.0333C32.604 33.0849 33.0666 32.622 33.0666 32.051C33.0666 31.48 32.604 31.0171 32.0333 31.0171Z" fill="#FEB409"/>
<path d="M42.3666 31.0171H36.1666C35.596 31.0171 35.1333 31.48 35.1333 32.051C35.1333 32.622 35.596 33.0849 36.1666 33.0849H42.3666C42.9373 33.0849 43.4 32.622 43.4 32.051C43.4 31.48 42.9373 31.0171 42.3666 31.0171Z" fill="#FEB409"/>
<path d="M42.3667 35.1523H23.7667C23.1961 35.1523 22.7334 35.6153 22.7334 36.1862C22.7334 36.7572 23.1961 37.2201 23.7667 37.2201H42.3667C42.9374 37.2201 43.4001 36.7572 43.4001 36.1862C43.4001 35.6153 42.9374 35.1523 42.3667 35.1523Z" fill="#FEB409"/>
<path d="M19.6333 35.1523H5.16663C4.59598 35.1523 4.1333 35.6153 4.1333 36.1862C4.1333 36.7572 4.59598 37.2201 5.16663 37.2201H19.6333C20.204 37.2201 20.6666 36.7572 20.6666 36.1862C20.6666 35.6153 20.204 35.1523 19.6333 35.1523Z" fill="#FEB409"/>
<path d="M42.3669 39.2881H38.2335C37.6629 39.2881 37.2002 39.751 37.2002 40.322C37.2002 40.893 37.6629 41.3559 38.2335 41.3559H42.3669C42.9375 41.3559 43.4002 40.893 43.4002 40.322C43.4002 39.751 42.9375 39.2881 42.3669 39.2881Z" fill="#FEB409"/>
<path d="M10.3333 39.2881H5.16663C4.59598 39.2881 4.1333 39.751 4.1333 40.322C4.1333 40.893 4.59598 41.3559 5.16663 41.3559H10.3333C10.904 41.3559 11.3666 40.893 11.3666 40.322C11.3666 39.751 10.904 39.2881 10.3333 39.2881Z" fill="#FEB409"/>
<path d="M34.1003 39.2881H14.4669C13.8963 39.2881 13.4336 39.751 13.4336 40.322C13.4336 40.893 13.8963 41.3559 14.4669 41.3559H34.1003C34.6709 41.3559 35.1336 40.893 35.1336 40.322C35.1336 39.751 34.6709 39.2881 34.1003 39.2881Z" fill="#FEB409"/>
<path d="M41.3335 51.6948H26.8668C26.2962 51.6948 25.8335 52.1578 25.8335 52.7287C25.8335 53.2997 26.2962 53.7626 26.8668 53.7626H41.3335C41.9042 53.7626 42.3668 53.2997 42.3668 52.7287C42.3668 52.1578 41.9042 51.6948 41.3335 51.6948Z" fill="#FEB409"/>
<path d="M33.0669 6.20312H14.4669C13.8963 6.20312 13.4336 6.66605 13.4336 7.23702C13.4336 7.80799 13.8963 8.27092 14.4669 8.27092H33.0669C33.6376 8.27092 34.1003 7.80799 34.1003 7.23702C34.1003 6.66605 33.6376 6.20312 33.0669 6.20312Z" fill="#FEB409"/>
<path d="M60.9668 9.30503H57.8668C57.8668 7.02102 56.0162 5.16943 53.7335 5.16943C51.4507 5.16943 49.6001 7.02102 49.6001 9.30503V46.5254C49.5917 49.4495 50.7535 52.2554 52.8262 54.3168L53.0029 54.4936C53.4064 54.8972 54.0605 54.8972 54.464 54.4936L54.6407 54.3168C56.7135 52.2554 57.8752 49.4495 57.8668 46.5254V11.3728H59.9335V20.6779H62.0001V10.3389C62.0001 9.76795 61.5375 9.30503 60.9668 9.30503ZM53.7335 52.249C52.6194 50.9163 51.9213 49.2856 51.7257 47.5593H55.7412C55.5457 49.2856 54.8475 50.9163 53.7335 52.249ZM55.8001 45.4915H51.6668V11.3728H55.8001V45.4915ZM51.6668 9.30503C51.6668 8.16296 52.592 7.23723 53.7335 7.23723C54.8749 7.23723 55.8001 8.16296 55.8001 9.30503H51.6668Z" fill="#FEB409"/>
<path d="M42.3669 16.5425H29.9669C29.3963 16.5425 28.9336 17.0054 28.9336 17.5764C28.9336 18.1473 29.3963 18.6103 29.9669 18.6103H42.3669C42.9376 18.6103 43.4003 18.1473 43.4003 17.5764C43.4003 17.0054 42.9376 16.5425 42.3669 16.5425Z" fill="#FEB409"/>
<path d="M27.9 43.4238H5.16663C4.59598 43.4238 4.1333 43.8868 4.1333 44.4577C4.1333 45.0287 4.59598 45.4916 5.16663 45.4916H27.9C28.4706 45.4916 28.9333 45.0287 28.9333 44.4577C28.9333 43.8868 28.4706 43.4238 27.9 43.4238Z" fill="#FEB409"/>
</svg>
