<svg width="64" height="64" viewBox="0 0 64 64" fill="none" xmlns="http://www.w3.org/2000/svg">
<path d="M32 0C14.3556 0 0 14.3556 0 32C0 49.6444 14.3556 64 32 64C49.6444 64 64 49.6444 64 32C64 14.3556 49.6444 0 32 0ZM32 60.8026C16.1175 60.8026 3.19739 47.8825 3.19739 32C3.19739 16.1175 16.1175 3.19739 32 3.19739C47.8825 3.19739 60.8026 16.1175 60.8026 32C60.8026 47.8825 47.8825 60.8026 32 60.8026Z" fill="#FEB409"/>
<path d="M40.3784 24.2086L28.1108 36.4109L23.6345 31.9084C23.0081 31.282 22.0032 31.282 21.3767 31.8954C20.7503 32.5088 20.7503 33.5267 21.3637 34.1531L26.9624 39.791C27.2756 40.1042 27.6802 40.2608 28.0978 40.2608C28.5024 40.2608 28.9069 40.1042 29.2201 39.791L42.6231 26.4663C43.2495 25.8399 43.2495 24.835 42.6361 24.2086C42.0097 23.5822 41.0048 23.5822 40.3784 24.2086Z" fill="#FEB409"/>
</svg>
