<svg width="72" height="49" viewBox="0 0 72 49" fill="none" xmlns="http://www.w3.org/2000/svg">
<path d="M53.4458 0C43.0409 0 34.8902 4.35524 34.8902 9.91498V11.614C32.6224 11.7497 30.4629 12.2976 28.4846 13.1849C25.63 12.2353 22.2338 11.6905 18.555 11.6905C8.15035 11.6905 0 16.0455 0 21.6051V27.3947V33.2954V39.0852C0 44.645 8.15035 49 18.5552 49C22.2956 49 25.7444 48.4373 28.6284 47.4582C30.8894 48.4493 33.3823 49 36.0008 49C38.6193 49 41.112 48.4493 43.3732 47.4582C46.2568 48.4373 49.7058 49 53.446 49C63.8501 49 72 44.645 72 39.0852V33.2954V27.3947V21.6051V15.7046V9.91498C71.9998 4.35524 63.8499 0 53.4458 0ZM41.6065 4.69659C44.7501 3.11187 48.9549 2.23895 53.4458 2.23895C57.9365 2.23895 62.1407 3.11187 65.2839 4.69659C68.141 6.13708 69.7794 8.03915 69.7794 9.91498C69.7794 11.7902 68.141 13.6921 65.2839 15.1326C62.1403 16.7177 57.9363 17.5906 53.4458 17.5906C52.0574 17.5906 50.6964 17.507 49.3855 17.3447C46.3459 14.1506 42.196 12.0392 37.5686 11.6468C37.2678 11.0764 37.1106 10.4943 37.1106 9.91478C37.1106 8.03895 38.7494 6.13708 41.6065 4.69659ZM36.0006 46.761C34.4966 46.761 33.0398 46.554 31.656 46.1687C30.6378 45.8851 29.6597 45.5043 28.7311 45.037C27.4284 44.3813 26.2242 43.5556 25.1473 42.5883C24.4793 41.9886 23.8607 41.3343 23.2979 40.6331C22.4614 39.5905 21.7482 38.4434 21.1813 37.2147C20.8561 36.5096 20.5789 35.7777 20.354 35.0231C20.0177 33.8949 19.7978 32.7162 19.7098 31.5011C19.681 31.101 19.6656 30.6972 19.6656 30.2895C19.6656 29.9443 19.6775 29.6017 19.6983 29.2616C20.0643 23.2978 23.591 18.183 28.6064 15.6047C29.5298 15.1301 30.5034 14.7414 31.5172 14.449C32.6002 14.137 33.7289 13.936 34.8904 13.857C35.2576 13.8322 35.6276 13.8184 36.0008 13.8184C36.1132 13.8184 36.2252 13.8204 36.3371 13.8227C36.5966 13.828 36.8544 13.8398 37.1108 13.8572C38.2172 13.9325 39.2937 14.1193 40.3295 14.4065C41.8999 14.8423 43.3767 15.5087 44.7209 16.3678C46.0554 17.2208 47.2597 18.2629 48.2958 19.4575C49.2886 20.602 50.1271 21.8856 50.7785 23.2754C51.1245 24.0137 51.4176 24.7821 51.6531 25.5752C52.0031 26.7545 52.225 27.9887 52.3033 29.262C52.3241 29.6021 52.3362 29.9445 52.3362 30.2899C52.3362 30.6976 52.3209 31.1014 52.2916 31.5016C52.2037 32.7166 51.984 33.8953 51.6474 35.0235C51.4227 35.7783 51.1455 36.5102 50.8199 37.2151C50.2528 38.4438 49.54 39.5909 48.7036 40.6335C48.1407 41.3348 47.5221 41.989 46.8544 42.5887C45.7774 43.556 44.5732 44.3817 43.2703 45.0374C42.3419 45.5047 41.3634 45.8855 40.3454 46.1691C38.961 46.5542 37.5044 46.761 36.0006 46.761ZM6.71613 16.3869C9.85974 14.8022 14.0643 13.9295 18.5552 13.9295C21.077 13.9295 23.5087 14.2047 25.7128 14.7265C20.9965 17.9069 17.7999 23.2061 17.4734 29.2636C13.3925 29.1348 9.60635 28.28 6.71654 26.8231C3.85941 25.3824 2.22062 23.4805 2.22062 21.6053C2.22042 19.7293 3.8592 17.8274 6.71613 16.3869ZM17.4851 31.504C17.5634 32.727 17.7581 33.9183 18.0591 35.0671C13.7557 35.005 9.74414 34.1392 6.71633 32.6129C3.8592 31.1722 2.22042 29.2701 2.22042 27.3949V26.3806C5.17398 29.3114 10.8069 31.3103 17.4851 31.504ZM18.5552 37.3099C18.6375 37.3099 18.7192 37.3087 18.8011 37.3083C19.3142 38.5817 19.9622 39.7854 20.7274 40.9019C20.0132 40.9478 19.2881 40.9714 18.5552 40.9714C14.0647 40.9714 9.86015 40.0983 6.71633 38.5132C3.8592 37.0727 2.22042 35.1706 2.22042 33.2954V32.1702C5.33054 35.2565 11.4114 37.3099 18.5552 37.3099ZM18.5552 46.761C14.0647 46.761 9.86015 45.8881 6.71633 44.3028C3.8592 42.8623 2.22042 40.9604 2.22042 39.0852V38.0709C5.33054 41.1574 11.4114 43.2106 18.5552 43.2106C19.8783 43.2106 21.1644 43.1398 22.4021 43.0053C23.4231 44.115 24.5755 45.0996 25.8346 45.9341C23.5981 46.475 21.1236 46.761 18.5552 46.761ZM69.7794 39.0852C69.7794 40.9606 68.141 42.8623 65.2839 44.3028C62.1403 45.8881 57.9363 46.761 53.4458 46.761C50.8776 46.761 48.403 46.475 46.1668 45.9341C47.4255 45.0994 48.5779 44.115 49.5993 43.0053C50.837 43.1398 52.1231 43.2106 53.4458 43.2106C60.5892 43.2106 66.6697 41.1574 69.7794 38.0709V39.0852ZM69.7794 33.2954C69.7794 35.1708 68.141 37.0727 65.2839 38.5132C62.1403 40.0983 57.9363 40.9714 53.4458 40.9714C52.7131 40.9714 51.988 40.9478 51.2738 40.9019C52.039 39.7854 52.6872 38.5817 53.2001 37.3083C53.282 37.3087 53.3637 37.3099 53.4458 37.3099C60.5892 37.3099 66.6697 35.2567 69.7794 32.1702V33.2954ZM69.7794 27.3947C69.7794 29.2703 68.141 31.172 65.2839 32.6127C62.2565 34.1392 58.2451 35.005 53.9423 35.0669C54.2433 33.9183 54.438 32.7268 54.5161 31.5038C61.1935 31.3101 66.8262 29.3114 69.7794 26.3802V27.3947ZM69.7794 21.6051C69.7794 23.4805 68.141 25.3822 65.2839 26.8229C62.3945 28.2798 58.6081 29.1346 54.528 29.2634C54.4606 28.0111 54.2711 26.7909 53.9699 25.6153C60.8858 25.5177 66.7459 23.4905 69.7794 20.4799V21.6051ZM69.7794 15.7046C69.7794 17.58 68.141 19.4817 65.2839 20.9224C62.1403 22.5075 57.9363 23.3806 53.4458 23.3806C53.3784 23.3806 53.3112 23.3796 53.2439 23.3792C52.7381 22.1004 52.0963 20.891 51.3363 19.7685C52.0277 19.8084 52.7312 19.8298 53.4458 19.8298C60.5892 19.8298 66.6697 17.7767 69.7794 14.6903V15.7046Z" fill="#FEB409"/>
<path d="M43.3306 35.3068C43.3306 34.5645 43.1722 33.8525 42.8827 33.193C42.0411 31.2767 40.0884 29.8075 37.6827 29.3321C37.4943 29.2949 37.3041 29.2621 37.1102 29.2373V27.3942V26.3799V21.6046V21.4653C39.3956 21.853 41.11 23.4113 41.11 25.2704C41.11 25.8886 41.6071 26.3899 42.2202 26.3899C42.8333 26.3899 43.3304 25.8886 43.3304 25.2704C43.3304 24.8377 43.2759 24.4154 43.1737 24.0075C42.5511 21.5244 40.1313 19.5886 37.1102 19.2029V17.7435C37.1102 17.1253 36.6133 16.624 36.0002 16.624C35.6407 16.624 35.3221 16.7971 35.1191 17.0642C35.1032 17.0852 35.0877 17.1062 35.0729 17.1279C34.9575 17.3047 34.8898 17.5159 34.8898 17.7433V19.2027C34.6245 19.2365 34.364 19.2833 34.1084 19.3406C30.9805 20.0408 28.6699 22.4334 28.6699 25.2702C28.6699 26.0186 28.8313 26.7357 29.1257 27.3995C29.4323 28.0904 29.8844 28.7222 30.4493 29.2705C31.15 29.9505 32.025 30.5006 33.0163 30.8721C33.6044 31.0924 34.2325 31.2511 34.89 31.3351V32.1693V33.2945V38.07V38.9051V39.0843V39.1085C34.89 39.1085 34.8896 39.1085 34.8894 39.1085C34.5722 39.0544 34.2658 38.9785 33.9738 38.8821C33.1491 38.6091 32.4361 38.1758 31.9043 37.6331C31.2678 36.9833 30.8905 36.1777 30.8905 35.306C30.8905 35.161 30.8621 35.0226 30.8123 34.8955C30.6497 34.4805 30.2494 34.1865 29.7801 34.1865C29.167 34.1865 28.6701 34.6878 28.6701 35.306C28.6701 35.4539 28.6784 35.5996 28.6909 35.7448C28.7847 36.848 29.2261 37.8717 29.9272 38.7379C30.4245 39.3522 31.0521 39.8863 31.7752 40.3147C32.4916 40.7392 33.3012 41.0605 34.175 41.2484C34.409 41.2989 34.6479 41.3398 34.8902 41.3709V42.8333C34.8902 43.1169 34.9955 43.3749 35.1678 43.5722C35.3713 43.8051 35.6683 43.9528 36.0006 43.9528C36.3326 43.9528 36.6298 43.8049 36.8332 43.5722C37.0055 43.3749 37.1106 43.1169 37.1106 42.8333V41.3709C37.3533 41.34 37.5917 41.2991 37.826 41.2484C38.6995 41.0605 39.5095 40.7392 40.2259 40.3147C40.949 39.8863 41.5766 39.3525 42.0737 38.7381C42.7748 37.8719 43.2162 36.848 43.31 35.745C43.3221 35.6008 43.3306 35.4547 43.3306 35.3068ZM34.499 28.9954C33.7789 28.8262 33.1263 28.5389 32.5802 28.163C31.9084 27.7006 31.3979 27.1047 31.1215 26.4306C30.9712 26.064 30.8905 25.6744 30.8905 25.2708C30.8905 23.4129 32.603 21.8554 34.8865 21.4663C34.8877 21.4661 34.889 21.4657 34.8902 21.4657V21.605V26.3803V27.3946V29.0735C34.7578 29.0512 34.6273 29.0257 34.499 28.9954ZM41.1102 35.3068C41.1102 36.1783 40.7327 36.9839 40.0964 37.6339C39.5644 38.1766 38.8517 38.6101 38.0269 38.8829C37.7346 38.9796 37.4283 39.0556 37.1112 39.1094C37.111 39.1094 37.1108 39.1094 37.1104 39.1094V39.0851V38.9059V38.0708V33.2953V32.1701V31.5001C39.2023 31.8554 40.8142 33.1916 41.0727 34.8418C41.0965 34.9944 41.1102 35.1494 41.1102 35.3068Z" fill="#FEB409"/>
</svg>
