<svg width="76" height="80" viewBox="0 0 76 80" fill="none" xmlns="http://www.w3.org/2000/svg">
<path d="M74.3747 76.8743H70.9476V27.1144C70.9476 24.7983 69.0633 22.9141 66.7473 22.9141H59.0873C56.7712 22.9141 54.887 24.7984 54.887 27.1144V76.8743H46.1852V49.6595C46.1852 47.3434 44.3009 45.4592 41.9848 45.4592H34.3248C32.0087 45.4592 30.1245 47.3436 30.1245 49.6595V76.8743H21.4227V62.7799C21.4227 60.4639 19.5383 58.5796 17.2223 58.5796H9.56219C7.24609 58.5796 5.36187 60.464 5.36187 62.7799V76.8743H1.75C0.887031 76.8743 0.1875 77.5738 0.1875 78.4368C0.1875 79.2998 0.887031 79.9993 1.75 79.9993H74.3747C75.2376 79.9993 75.9372 79.2998 75.9372 78.4368C75.9372 77.5738 75.2376 76.8743 74.3747 76.8743ZM18.2973 76.8743H8.48672V62.7799C8.48672 62.187 8.96906 61.7046 9.56203 61.7046H17.222C17.815 61.7046 18.2973 62.187 18.2973 62.7799V76.8743ZM43.06 76.8743H33.2494V49.6595C33.2494 49.0665 33.7317 48.5842 34.3247 48.5842H41.9847C42.5775 48.5842 43.06 49.0665 43.06 49.6595V76.8743ZM67.8226 76.8743H58.012V27.1144C58.012 26.5214 58.4944 26.0391 59.0873 26.0391H66.7473C67.3403 26.0391 67.8226 26.5214 67.8226 27.1144V76.8743Z" fill="#FEB409"/>
<path d="M70.9442 1.64312C70.966 1.21672 70.816 0.783124 70.4904 0.457499C70.1648 0.131875 69.7312 -0.0182812 69.3048 0.00374999C69.2796 0.00265625 69.2548 0 69.2292 0H59.776C58.9131 0 58.2135 0.69953 58.2135 1.5625C58.2135 2.42547 58.9131 3.125 59.776 3.125H65.6131L50.1667 18.5715L44.3417 12.7465C44.0487 12.4536 43.6512 12.2889 43.2368 12.2889C42.8224 12.2889 42.4249 12.4536 42.132 12.7465L14.0431 40.8356C13.4329 41.4457 13.4329 42.4351 14.0431 43.0454C14.3482 43.3503 14.7481 43.5028 15.1479 43.5028C15.5478 43.5028 15.9478 43.3503 16.2528 43.0451L43.2368 16.0609L49.0618 21.8859C49.672 22.4961 50.6613 22.4961 51.2717 21.8859L67.8229 5.33484V10.6176C67.8229 11.4806 68.5224 12.1801 69.3854 12.1801C70.2484 12.1801 70.9479 11.4806 70.9479 10.6176V1.71875C70.9479 1.69328 70.9453 1.66844 70.9442 1.64312Z" fill="#FEB409"/>
<path d="M9.88135 48.9541C10.7443 48.9541 11.4438 48.2545 11.4438 47.3916C11.4438 46.5287 10.7443 45.8291 9.88135 45.8291C9.0184 45.8291 8.31885 46.5287 8.31885 47.3916C8.31885 48.2545 9.0184 48.9541 9.88135 48.9541Z" fill="#FEB409"/>
</svg>
