<svg width="78" height="80" viewBox="0 0 78 80" fill="none" xmlns="http://www.w3.org/2000/svg">
<path d="M76.7458 12.7203L66.495 0.773461C66.4755 0.750805 66.4553 0.72893 66.4342 0.707992C65.5389 -0.187163 64.0875 -0.240131 63.1297 0.587055L54.9614 7.64001C54.4766 8.05845 54.1838 8.64095 54.1372 9.27954C54.0907 9.91829 54.2953 10.5369 54.7138 11.0216L55.0336 11.392L54.5068 11.847C53.1085 13.0547 51.0039 13.4159 48.8782 12.813C48.835 12.8008 42.7853 11.0839 42.7416 11.0738C41.6389 10.8175 38.7861 10.4128 36.0616 12.1706C36.0177 12.1958 20.4071 21.1305 20.3647 21.1581C18.9399 22.0864 16.9552 24.407 18.5557 27.2164C18.5619 27.2273 18.5683 27.2381 18.5749 27.2489C19.2607 28.3673 20.2494 29.0333 21.4033 29.2181C21.4463 30.3648 21.9569 31.4639 22.8655 32.2503C24.631 33.7784 27.3113 33.5854 28.8396 31.8197L34.6253 25.1347C34.8599 24.8637 35.0564 24.5666 35.2146 24.2478L35.4533 24.1494C35.7652 25.3189 36.6178 26.4831 38.3602 26.977C45.6196 29.0359 47.1307 29.6323 49.1632 29.4076C54.8294 28.8003 56.128 28.6145 58.9817 26.972C61.0344 25.7906 63.0322 24.4095 64.9349 22.8598L65.2828 23.2628C66.1502 24.267 67.6638 24.375 68.6647 23.5105L76.4403 16.7966C77.6449 15.7566 77.7817 13.928 76.7458 12.7203ZM27.0674 30.2853C25.8952 31.6395 23.6828 30.7417 23.7475 28.9851C23.7475 28.9851 30.6716 26.1208 30.6721 26.1206L27.0674 30.2853ZM57.8127 24.9403C55.3847 26.3378 54.5674 26.4706 48.9378 27.0742C47.3961 27.2395 46.188 26.7606 38.9999 24.7219C38.0791 24.4608 37.8386 23.9684 37.738 23.6209C37.6003 23.1461 37.6882 22.6923 37.6878 22.6923C37.6891 22.6869 37.6892 22.6814 37.6905 22.6759C37.6927 22.6658 37.6957 22.6559 37.6975 22.6458C37.6982 22.6428 37.7716 22.3295 37.9736 22.0569C38.1483 21.8212 38.4113 21.5917 39.0403 21.6786C41.258 21.9837 46.5389 22.6898 46.5919 22.697C47.2352 22.7828 47.8233 22.3322 47.9089 21.6906C47.9947 21.0491 47.5442 20.4594 46.9027 20.3736C46.8496 20.3666 41.5732 19.6611 39.3599 19.3566C37.2878 19.0711 36.0669 20.3506 35.5858 21.5594L33.8764 22.2642C20.3844 27.8272 23.4261 26.6195 22.4247 26.9086C20.54 27.1731 19.2486 24.7205 21.6186 23.1394L37.2524 14.1902C37.2535 14.1897 37.2546 14.1891 37.2557 14.1884C37.2746 14.1775 37.2933 14.1661 37.3116 14.1542C39.2691 12.8799 41.3528 13.1617 42.1849 13.3513L48.2386 15.0684C51.1253 15.8869 54.0416 15.3459 56.0386 13.6216L56.5655 13.1666C57.4594 14.2019 62.6091 20.1658 63.4033 21.0856C61.6138 22.5386 59.7377 23.8323 57.8127 24.9403ZM74.9086 15.0222C74.8838 15.0436 67.1267 21.753 67.0941 21.7491C67.0492 21.7458 56.4232 9.47485 56.4932 9.41439L64.6614 2.36127H64.6616C64.6774 2.34768 64.6971 2.34096 64.7168 2.34096C64.7327 2.34096 64.7485 2.34533 64.7622 2.35408L74.9666 14.2469C75.1638 14.4764 75.1378 14.8244 74.9086 15.0222Z" fill="#FEB409"/>
<path d="M56.6715 50.8365C56.5302 47.0572 51.761 45.3167 49.2354 48.2351L43.4491 54.9204C43.2146 55.1914 43.0182 55.4884 42.8604 55.807L42.6216 55.9054C42.3097 54.7359 41.4571 53.5717 39.7147 53.0778C32.0299 50.8981 31.028 50.4612 28.9344 50.645C28.9269 50.6456 28.9194 50.6464 28.9119 50.6472C23.2457 51.2547 21.9469 51.4405 19.0932 53.0828C17.0404 54.2644 15.0425 55.6454 13.14 57.1953L12.7921 56.7923C11.9277 55.7915 10.4107 55.6804 9.4102 56.5447L1.21098 63.6239C0.234422 64.4668 0.132391 65.9412 0.983172 66.9112L11.7891 79.2256C12.598 80.1473 14.0052 80.2628 14.9236 79.486C14.9274 79.4828 14.9415 79.4709 14.9454 79.4676L23.1136 72.4145C24.1166 71.5484 24.2277 70.0359 23.3615 69.0328L23.0416 68.6623L23.5685 68.2075C24.9669 66.9998 27.0716 66.6389 29.1971 67.2415L34.6319 68.7831C35.2544 68.9592 35.9027 68.5981 36.0794 67.9754C36.256 67.3526 35.8943 66.7047 35.2716 66.5281L29.8366 64.9865C26.9497 64.1679 24.0338 64.7089 22.0366 66.4332L21.5097 66.8881L14.6719 58.9692C16.4611 57.5162 18.3372 56.2223 20.2624 55.1142C22.6924 53.7156 23.5083 53.5837 29.1502 52.979C30.4691 52.8642 31.2936 53.1019 35.8147 54.4006C39.318 55.4069 40.0411 55.412 40.3371 56.4336C40.4747 56.9084 40.3869 57.3622 40.3872 57.3622C40.3296 57.614 40.2213 57.8362 40.1016 57.9978C39.9268 58.2333 39.6627 58.4626 39.035 58.3761C36.8171 58.0709 31.5363 57.3648 31.4833 57.3576C30.8402 57.2723 30.2521 57.7223 30.1663 58.364C30.0805 59.0056 30.531 59.5953 31.1725 59.6811C31.2257 59.6881 36.5021 60.3936 38.7154 60.6981C40.546 60.9503 41.9032 59.9653 42.4886 58.4956C42.5471 58.4715 54.291 53.6312 54.3474 53.6031C55.5852 52.9745 56.7546 52.8308 57.4919 54.0145C58.3405 55.5309 56.8357 56.6625 56.4566 56.9153L40.8229 65.8643C40.8158 65.8684 40.809 65.8725 40.8021 65.8765C40.7897 65.8839 40.7757 65.8926 40.7638 65.9004C40.5052 66.0687 40.2291 66.2189 39.943 66.3465C39.3521 66.6104 39.0869 67.3037 39.351 67.8946C39.6149 68.4859 40.3086 68.7509 40.899 68.4867C41.2883 68.3128 41.6655 68.1086 42.0147 67.8828C42.0611 67.8562 57.6654 58.9253 57.7102 58.8961C61.9608 56.1284 59.9163 51.3558 56.6715 50.8365ZM21.5874 70.5646C21.5918 70.5696 21.6019 70.5814 21.6004 70.6035C21.5977 70.6379 13.5249 77.597 13.499 77.6195L2.76083 65.3826L10.9422 58.3183C10.9472 58.314 10.9607 58.3029 10.981 58.3054C11.0033 58.307 11.0135 58.3189 11.0177 58.3239C12.1215 59.6022 20.4558 69.2542 21.5874 70.5646ZM47.4032 53.9339L51.0079 49.7689C52.1654 48.4314 54.3929 49.2898 54.3275 51.0692C54.3274 51.0694 47.4043 53.9334 47.4032 53.9339Z" fill="#FEB409"/>
<path d="M37.6966 36.4193C37.9159 36.806 38.5632 37.3243 39.3284 37.3057C39.9613 37.2908 40.5474 36.9136 40.8648 36.4027C42.3745 33.9771 45.5327 34.5238 46.4755 36.7318C46.7298 37.3268 47.4184 37.6036 48.0138 37.3493C48.6091 37.0951 48.8856 36.4063 48.6313 35.8112C47.0307 32.064 41.927 31.2151 39.281 34.5835C36.0734 30.4738 29.4815 32.8085 29.4863 37.9726C29.492 43.4019 34.1931 47.5543 38.591 49.63C39.0437 49.8438 39.559 49.8328 39.9887 49.6286C43.1507 48.1285 46.5123 45.4664 48.0681 42.2518C48.3501 41.6691 48.1062 40.9682 47.5237 40.6863C46.9407 40.404 46.2401 40.648 45.9582 41.2307C44.6906 43.8499 41.8831 46.0544 39.2863 47.3627C35.6284 45.5538 31.8349 42.1879 31.8306 37.9702C31.8277 34.7896 36.0959 33.6027 37.6966 36.4193Z" fill="#FEB409"/>
</svg>
