<svg width="80" height="74" viewBox="0 0 80 74" fill="none" xmlns="http://www.w3.org/2000/svg">
<path d="M24.6714 25.9815C24.1687 25.5738 23.4309 25.6507 23.0231 26.1535C22.5497 26.7373 21.922 27.0587 21.2555 27.0587C20.5889 27.0587 19.9612 26.7371 19.4878 26.1535C19.0801 25.6509 18.342 25.574 17.8395 25.9815C17.3369 26.3892 17.2598 27.1271 17.6675 27.6298C18.5811 28.7563 19.8889 29.4024 21.2555 29.4024C22.622 29.4024 23.9297 28.7563 24.8434 27.6298C25.2511 27.1271 25.174 26.3892 24.6714 25.9815Z" fill="#FEB409"/>
<path d="M15.8999 19.0264C15.2527 19.0264 14.728 19.5511 14.728 20.1982V21.5371C14.728 22.1843 15.2527 22.709 15.8999 22.709C16.5471 22.709 17.0718 22.1843 17.0718 21.5371V20.1982C17.0718 19.5511 16.5471 19.0264 15.8999 19.0264Z" fill="#FEB409"/>
<path d="M26.6113 19.0264C25.9641 19.0264 25.4395 19.5511 25.4395 20.1982V21.5371C25.4395 22.1843 25.964 22.709 26.6113 22.709C27.2585 22.709 27.7832 22.1843 27.7832 21.5371V20.1982C27.7832 19.5511 27.2585 19.0264 26.6113 19.0264Z" fill="#FEB409"/>
<path d="M63.4994 32.6758C62.9968 32.2682 62.2588 32.3451 61.8511 32.8479C61.3777 33.4315 60.7499 33.753 60.0835 33.753C59.4169 33.753 58.7893 33.4315 58.3158 32.8479C57.9083 32.3452 57.1702 32.2682 56.6675 32.6758C56.1649 33.0835 56.088 33.8215 56.4957 34.3241C57.4091 35.4508 58.7169 36.0968 60.0835 36.0968C61.45 36.0968 62.7577 35.4507 63.6713 34.3241C64.079 33.8215 64.0021 33.0835 63.4994 32.6758Z" fill="#FEB409"/>
<path d="M54.728 25.7197C54.0808 25.7197 53.5562 26.2444 53.5562 26.8916V28.2305C53.5562 28.8777 54.0808 29.4024 54.728 29.4024C55.3752 29.4024 55.8999 28.8777 55.8999 28.2305V26.8916C55.8999 26.2444 55.3752 25.7197 54.728 25.7197Z" fill="#FEB409"/>
<path d="M65.4395 25.7197C64.7923 25.7197 64.2676 26.2444 64.2676 26.8916V28.2305C64.2676 28.8777 64.7921 29.4024 65.4395 29.4024C66.0866 29.4024 66.6113 28.8777 66.6113 28.2305V26.8916C66.6113 26.2444 66.0866 25.7197 65.4395 25.7197Z" fill="#FEB409"/>
<path d="M76.7384 48.8945L67.5577 45.2221C67.508 45.2023 67.462 45.177 67.4155 45.1526C73.7566 43.7098 76.7597 41.297 76.893 41.1877C77.21 40.9279 77.3683 40.5213 77.3103 40.1156C77.297 40.0228 75.9831 30.7195 75.9831 21.5368C75.9831 12.7697 68.8505 5.63702 60.0833 5.63702C51.3161 5.63702 44.1836 12.7695 44.1836 21.5368C44.1836 23.939 44.0745 26.8771 43.897 29.6586L41.3387 30.9378L33.8294 27.1832C33.8078 27.1725 33.7852 27.1646 33.7631 27.1553C34.1203 26.1142 34.3539 25.0164 34.4397 23.8772C36.0105 23.3918 37.155 21.9261 37.155 20.1979C37.155 19.034 36.635 17.99 35.8161 17.2834V9.48655C35.8161 7.33265 34.7278 5.31734 32.9431 4.1064C32.3384 1.85953 30.3197 0.28125 27.9497 0.28125H17.2384C11.4244 0.28125 6.69422 5.0114 6.69422 10.8255V17.2833C5.87531 17.9897 5.35531 19.0339 5.35531 20.1978C5.35531 21.9259 6.49984 23.3917 8.07063 23.877C8.36656 27.8112 10.3941 31.2679 13.3888 33.4926V36.7317L3.6975 39.639C1.48594 40.3026 0 42.2996 0 44.6087V57.6869C0 58.3341 0.524687 58.8588 1.17188 58.8588H1.33891V72.4149C1.33891 73.0621 1.86359 73.5868 2.51078 73.5868C3.15797 73.5868 3.68266 73.0621 3.68266 72.4149V58.8588H8.03344V72.4149C8.03344 73.0621 8.55813 73.5868 9.20531 73.5868C9.8525 73.5868 10.3772 73.0621 10.3772 72.4149V52.2087C10.3772 51.1809 10.0758 50.1856 9.50578 49.3306L7.50266 46.3259C7.14359 45.7873 6.41594 45.642 5.87766 46.0007C5.33906 46.3596 5.19359 47.0873 5.55266 47.6259L7.55578 50.6307C7.86828 51.0995 8.03359 51.6451 8.03359 52.2087V56.5151H2.51078H2.34375V44.6087C2.34375 43.3426 3.15844 42.2477 4.37125 41.8838L8.39422 40.677C9.79516 46.5429 15.1156 50.8254 21.2555 50.8254C23.4613 50.8254 25.6034 50.2815 27.5217 49.2465C28.2228 50.2029 29.3536 50.8254 30.6277 50.8254H30.7947V50.9924C30.7947 54.921 32.9559 58.3523 36.1503 60.1662V62.0776C36.1503 62.1494 36.1044 62.2132 36.0361 62.236L31.6647 63.6932C29.5427 64.4005 28.1169 66.3787 28.1169 68.6155V72.4149C28.1169 73.0621 28.6416 73.5868 29.2887 73.5868C29.9359 73.5868 30.4606 73.0621 30.4606 72.4149V68.6155C30.4606 67.3891 31.2423 66.3044 32.4058 65.9168L33.6912 65.4882C35.3919 68.0244 38.252 69.5702 41.3387 69.5702C44.4287 69.5702 47.2863 68.0254 48.9866 65.4883L50.2717 65.9168C51.4352 66.3046 52.2169 67.3891 52.2169 68.6155V72.4149C52.2169 73.0621 52.7416 73.5868 53.3887 73.5868C54.0359 73.5868 54.5606 73.0621 54.5606 72.4149V68.6155C54.5606 66.3787 53.1348 64.4005 51.0128 63.6933L46.6414 62.2362C46.5731 62.2133 46.5272 62.1498 46.5272 62.0777V60.1663C48.9189 58.8082 50.7292 56.5432 51.4886 53.8412C53.7031 56.1584 56.7961 57.5202 60.0831 57.5202C65.2725 57.5202 69.8258 54.1657 71.3942 49.2815L75.8675 51.0707C76.9539 51.5052 77.6558 52.5421 77.6558 53.712V59.193H77.4888H73.305V57.6871C73.305 57.0399 72.7803 56.5152 72.1331 56.5152C71.4859 56.5152 70.9613 57.0399 70.9613 57.6871V72.415C70.9613 73.0622 71.4859 73.5869 72.1331 73.5869C72.7803 73.5869 73.305 73.0622 73.305 72.415V61.5368H76.3169V72.415C76.3169 73.0622 76.8416 73.5869 77.4888 73.5869C78.1359 73.5869 78.6606 73.0622 78.6606 72.415V61.5368H78.8277C79.1384 61.5368 79.4364 61.4133 79.6562 61.1937C79.8761 60.9738 79.9995 60.6758 79.9995 60.3649V53.712C80 51.5779 78.7198 49.687 76.7384 48.8945ZM46.5275 21.5367C46.5275 14.0619 52.6087 7.98061 60.0836 7.98061C67.5584 7.98061 73.6395 14.0619 73.6395 21.5367C73.6395 29.4059 74.5872 37.3607 74.8952 39.7365C73.845 40.4235 71.1562 41.9367 66.6111 42.931V41.0662C67.2336 40.7134 67.8295 40.3107 68.3898 39.8579C70.6958 37.994 72.3253 35.3835 72.9778 32.5076C73.1953 31.5493 73.3056 30.5611 73.3056 29.5703C73.3056 22.9467 68.5155 21.9958 63.883 21.0761C60.9353 20.4909 57.8873 19.8858 55.4602 17.944C55.1084 17.6626 54.6266 17.6078 54.2205 17.8029C53.8144 17.9981 53.5563 18.4086 53.5563 18.8592C53.5563 18.8903 53.5052 21.9737 49.0883 23.0779C48.4603 23.235 48.0786 23.8712 48.2356 24.4992C48.3925 25.1272 49.0289 25.5086 49.6567 25.3518C53.3536 24.4276 54.8617 22.3537 55.4767 20.7956C58.018 22.3015 60.8647 22.8665 63.4266 23.3751C68.378 24.3581 70.9619 25.0801 70.9619 29.5704C70.9619 30.387 70.8711 31.2007 70.6922 31.9892C70.1555 34.3539 68.8147 36.501 66.9164 38.0354C64.9633 39.6142 62.6005 40.4485 60.0836 40.4485C57.7892 40.4485 55.6056 39.7448 53.7525 38.4149C53.0736 36.562 51.9831 34.8667 50.5442 33.4698V28.2315C50.5442 27.8253 50.3339 27.4481 49.9884 27.2346C49.643 27.0212 49.2117 27.0017 48.8483 27.1834L46.3181 28.4484C46.4569 26.0079 46.5275 23.6876 46.5275 21.5367ZM48.2005 30.1273V34.3684L43.9592 32.2479L48.2005 30.1273ZM34.4773 30.1273L38.7184 32.2479L34.4773 34.3684V30.1273ZM28.1169 42.959V44.072C27.2778 44.7965 26.778 45.8568 26.778 46.9756C25.1089 47.9617 23.2128 48.4817 21.2553 48.4817C16.1578 48.4817 11.7477 44.8945 10.6444 40.002L13.5395 39.1334C14.2537 42.7409 17.4414 45.4698 21.2555 45.4698C24.2841 45.4698 26.9166 43.7484 28.2306 41.2335C28.1555 41.8026 28.1169 42.3788 28.1169 42.959ZM15.7328 37.6015V34.887C17.4144 35.6635 19.285 36.0975 21.2555 36.0975C23.2258 36.0975 25.0966 35.6634 26.7781 34.8871V37.6032C26.7781 40.6484 24.3008 43.1259 21.2555 43.1259C18.2153 43.1259 15.7414 40.6565 15.7331 37.6182C15.7331 37.6126 15.7328 37.607 15.7328 37.6015ZM21.2555 33.7537C15.257 33.7537 10.3772 28.8739 10.3772 22.8756C10.3772 22.2284 9.8525 21.7037 9.20531 21.7037C8.375 21.7037 7.69938 21.0281 7.69938 20.1978C7.69938 19.3675 8.37484 18.6918 9.20531 18.6918H11.8831C12.3875 18.6918 12.8353 18.3692 12.9948 17.8906L14.0705 14.6637C16.7634 14.6029 25.1117 14.2244 29.8128 11.8737C30.3917 11.5842 30.6264 10.8805 30.3369 10.3015C30.0475 9.72264 29.3438 9.48796 28.7647 9.77749C23.7208 12.2994 13.3261 12.3315 13.2217 12.3315C12.7173 12.3317 12.2695 12.6544 12.1102 13.1329L11.0384 16.3483H9.20531C9.14937 16.3483 9.09375 16.3501 9.03828 16.3525V10.8255C9.03828 6.30374 12.717 2.625 17.2388 2.625H27.95C29.3494 2.625 30.525 3.63359 30.7458 5.02296C30.8019 5.37609 31.0161 5.68421 31.3275 5.85984C32.6506 6.60609 33.4727 7.99561 33.4727 9.48639V16.3522C33.4172 16.3497 33.3617 16.3479 33.3056 16.3479H31.9667C31.3195 16.3479 30.7948 16.8726 30.7948 17.5198C30.7948 18.167 31.3195 18.6917 31.9667 18.6917H33.3056C34.1359 18.6917 34.8116 19.3672 34.8116 20.1976C34.8116 21.0281 34.1361 21.7036 33.3056 21.7036C32.6584 21.7036 32.1338 22.2282 32.1338 22.8754C32.1338 28.8737 27.2539 33.7537 21.2555 33.7537ZM29.1217 37.6035V33.4926C30.2875 32.6265 31.3064 31.5745 32.1336 30.3789V33.4696C30.8212 34.7437 29.7983 36.2657 29.1134 37.9295C29.118 37.8212 29.1217 37.7128 29.1217 37.6035ZM46.6481 64.7087C45.358 66.2848 43.4198 67.2263 41.3389 67.2263C39.2605 67.2263 37.3211 66.2841 36.0305 64.7085L36.7773 64.4596C37.8042 64.1174 38.4942 63.1601 38.4942 62.0777V61.1437C39.3998 61.3979 40.3533 61.5368 41.3391 61.5368C42.3248 61.5368 43.2783 61.3979 44.1839 61.1437V62.0777C44.1838 63.1599 44.8736 64.1173 45.9006 64.4594L46.6481 64.7087ZM50.7114 48.4817C50.0642 48.4817 49.5395 49.0063 49.5395 49.6535V50.8187C49.5395 50.8288 49.5394 50.839 49.5395 50.8491V50.9924C49.5394 55.5141 45.8606 59.1929 41.3389 59.1929C36.8172 59.1929 33.1386 55.5141 33.1386 50.9924V49.6535C33.1386 49.0063 32.6139 48.4817 31.9667 48.4817H30.6278C29.7975 48.4817 29.1219 47.8062 29.1219 46.9757C29.1219 46.4413 29.4047 45.9577 29.8783 45.6821C29.9841 45.6206 30.0761 45.5426 30.1558 45.4545C33.0527 45.3706 42.4431 44.8254 48.6148 41.2987C49.1767 40.9776 49.372 40.2618 49.0509 39.6998C48.7298 39.1378 48.0137 38.9426 47.452 39.2637C42.0455 42.3531 33.5498 42.9717 30.4608 43.0952V42.959C30.4608 40.7795 31.1208 38.6687 32.3167 36.8892C32.4103 37.0374 32.5355 37.1662 32.6895 37.2614C32.8778 37.3776 33.0914 37.4364 33.3056 37.4364C33.4847 37.4364 33.6642 37.3953 33.8297 37.3126L41.3391 33.5579L48.8484 37.3126C49.0139 37.3953 49.1934 37.4364 49.3725 37.4364C49.5869 37.4364 49.8005 37.3776 49.9886 37.2614C50.1425 37.1662 50.2677 37.0373 50.3613 36.8892C51.5572 38.6687 52.2172 40.7795 52.2172 42.959V44.6693C52.2172 45.0865 52.4389 45.4723 52.7997 45.6821C53.2734 45.9579 53.5563 46.4413 53.5563 46.9757C53.5563 47.806 52.8806 48.4817 52.0503 48.4817H50.7114ZM60.0836 55.1762C56.8392 55.1762 53.8292 53.5245 52.077 50.8248C54.1873 50.8102 55.8998 49.0895 55.8998 46.9759C55.8998 45.8571 55.4 44.7967 54.5609 44.0721V42.9592C54.5609 42.4874 54.5355 42.0184 54.4856 41.5537C56.2233 42.3684 58.1205 42.792 60.0836 42.792C61.5125 42.792 62.9256 42.5552 64.2673 42.1077V43.8238C64.2673 45.4071 65.2172 46.8102 66.6872 47.3982L69.2142 48.409C68.0031 52.4134 64.3047 55.1762 60.0836 55.1762Z" fill="#FEB409"/>
<path d="M44.7549 52.7608C44.2522 52.3531 43.5143 52.43 43.1066 52.9328C42.633 53.5166 42.0054 53.838 41.339 53.838C40.6725 53.838 40.0447 53.5166 39.5713 52.9328C39.1636 52.4302 38.4255 52.3531 37.923 52.7608C37.4204 53.1685 37.3433 53.9064 37.751 54.4091C38.6647 55.5355 39.9724 56.1817 41.339 56.1817C42.7055 56.1817 44.0132 55.5356 44.9269 54.4092C45.3344 53.9066 45.2574 53.1685 44.7549 52.7608Z" fill="#FEB409"/>
<path d="M37.3438 49.4922C37.991 49.4922 38.5156 48.9675 38.5156 48.3203C38.5156 47.6731 37.991 47.1484 37.3438 47.1484C36.6965 47.1484 36.1719 47.6731 36.1719 48.3203C36.1719 48.9675 36.6965 49.4922 37.3438 49.4922Z" fill="#FEB409"/>
<path d="M45.3125 49.4922C45.9597 49.4922 46.4844 48.9675 46.4844 48.3203C46.4844 47.6731 45.9597 47.1484 45.3125 47.1484C44.6653 47.1484 44.1406 47.6731 44.1406 48.3203C44.1406 48.9675 44.6653 49.4922 45.3125 49.4922Z" fill="#FEB409"/>
</svg>
