<svg width="80" height="80" viewBox="0 0 80 80" fill="none" xmlns="http://www.w3.org/2000/svg">
<path d="M21.2359 72.1939C20.6945 69.0593 17.9545 66.666 14.6666 66.666C12.0412 66.666 9.76656 68.1913 8.67984 70.4019C8.46516 70.2486 8.23578 70.1125 7.99984 69.9899V47.9993C7.99984 47.2634 7.4025 46.666 6.66656 46.666C5.93062 46.666 5.33328 47.2634 5.33328 47.9993V69.3325C2.39203 69.3325 0 71.7246 0 74.666C0 77.6074 2.39203 79.9992 5.33328 79.9992H20C22.2053 79.9992 24 78.2046 24 75.9993C24 74.2246 22.8386 72.7166 21.2359 72.1939ZM20 77.3325H5.33328C3.86266 77.3325 2.66656 76.1366 2.66656 74.6658C2.66656 73.195 3.86266 71.9993 5.33328 71.9993C6.57734 71.9993 7.68266 72.7219 8.08391 73.7993C8.30922 74.4033 8.93328 74.7593 9.57063 74.6446C10.2053 74.5299 10.6666 73.9779 10.6666 73.3325C10.6666 71.1272 12.4612 69.3325 14.6666 69.3325C16.8719 69.3325 18.6666 71.1272 18.6666 73.3325C18.6666 74.0685 19.2639 74.6658 19.9998 74.6658C20.7345 74.6658 21.3331 75.2644 21.3331 75.9991C21.3331 76.7338 20.7347 77.3325 20 77.3325Z" fill="#FEB409"/>
<path d="M78.6667 10.6667H53.3333C52.5973 10.6667 52 11.264 52 12C52 12.7359 52.5973 13.3333 53.3333 13.3333H77.3333V42.1146L40.9427 5.72405C40.6812 5.46265 40.3386 5.33343 39.9959 5.33343C39.6533 5.33343 39.3106 5.4628 39.0492 5.72405L2.66672 42.1132V13.3333H17.3334C18.0694 13.3333 18.6667 12.7359 18.6667 12V6.66671C18.6667 5.93077 18.0694 5.33343 17.3334 5.33343H16V2.66671H24V5.33343H22.6667C21.9308 5.33343 21.3334 5.93077 21.3334 6.66671V12C21.3334 12.7359 21.9308 13.3333 22.6667 13.3333H26.6667C27.4027 13.3333 28 12.7359 28 12C28 11.264 27.4027 10.6667 26.6667 10.6667H24V7.99999H25.3333C26.0692 7.99999 26.6666 7.40265 26.6666 6.66671V1.33328C26.6666 0.597343 26.0692 0 25.3333 0H14.6667C13.9308 0 13.3334 0.597343 13.3334 1.33328V6.66655C13.3334 7.40249 13.9308 7.99983 14.6667 7.99983H16V10.6665H1.33328C0.98 10.6665 0.64 10.8065 0.390625 11.0572C0.14 11.3067 0 11.6467 0 12L0.0053125 45.3332C0.0053125 45.8732 0.330625 46.3585 0.829375 46.5652C0.994687 46.6332 1.16672 46.6666 1.33875 46.6666C1.68672 46.6666 2.02813 46.5307 2.28141 46.276L39.9959 8.54796L77.7239 46.2759C77.9786 46.5306 78.3198 46.6665 78.6666 46.6665C78.8386 46.6665 79.0119 46.6332 79.1772 46.5651C79.6745 46.3584 79.9998 45.8718 79.9998 45.3331V12C80 11.264 79.4027 10.6667 78.6667 10.6667Z" fill="#FEB409"/>
<path d="M74.6667 69.3325V47.9993C74.6667 47.2634 74.0694 46.666 73.3334 46.666C72.5975 46.666 72.0002 47.2634 72.0002 47.9993V69.9899C71.7642 70.1125 71.5348 70.2485 71.3202 70.4019C70.2334 68.1913 67.9588 66.666 65.3334 66.666C62.0455 66.666 59.3055 69.0593 58.7641 72.1939C57.1614 72.7166 56 74.2246 56 75.9993C56 76.4699 56.0959 76.9139 56.2467 77.3325H33.3333C32.5973 77.3325 32 77.9299 32 78.6658C32 79.4018 32.5973 79.9991 33.3333 79.9991H60H65.3333H74.6666C77.608 79.9992 80 77.6072 80 74.666C80 71.7247 77.608 69.3325 74.6667 69.3325ZM74.6667 77.3325H65.3334H60C59.2653 77.3325 58.6667 76.7339 58.6667 75.9993C58.6667 75.2646 59.2653 74.666 60 74.666C60.7359 74.666 61.3333 74.0686 61.3333 73.3327C61.3333 71.1274 63.128 69.3327 65.3333 69.3327C67.5386 69.3327 69.3333 71.1274 69.3333 73.3327C69.3333 73.978 69.7947 74.53 70.4292 74.6447C71.0625 74.7607 71.6906 74.4033 71.9159 73.7994C72.3172 72.7221 73.4227 71.9994 74.6666 71.9994C76.1372 71.9994 77.3333 73.1954 77.3333 74.6661C77.3333 76.1369 76.1373 77.3325 74.6667 77.3325Z" fill="#FEB409"/>
<path d="M45.3336 26.6663C45.3336 23.7249 42.9415 21.333 40.0003 21.333C37.0589 21.333 34.667 23.725 34.667 26.6663C34.667 29.6075 37.0589 31.9996 40.0003 31.9996C42.9417 31.9996 45.3336 29.6075 45.3336 26.6663ZM37.3336 26.6663C37.3336 25.1957 38.5295 23.9996 40.0003 23.9996C41.4709 23.9996 42.667 25.1955 42.667 26.6663C42.667 28.1369 41.4711 29.333 40.0003 29.333C38.5296 29.3328 37.3336 28.1369 37.3336 26.6663Z" fill="#FEB409"/>
<path d="M65.3331 45.333H54.6663C53.9304 45.333 53.3331 45.9303 53.3331 46.6663V61.333H51.9998C51.2638 61.333 50.6665 61.9303 50.6665 62.6663C50.6665 63.4022 51.2638 63.9995 51.9998 63.9995H67.9998C68.7357 63.9995 69.3331 63.4022 69.3331 62.6663C69.3331 61.9303 68.7357 61.333 67.9998 61.333H66.6665V46.6663C66.6665 45.9303 66.0692 45.333 65.3331 45.333ZM63.9998 61.333H55.9998V55.9997H63.9998V61.333ZM63.9998 53.333H55.9998V47.9997H63.9998V53.333Z" fill="#FEB409"/>
<path d="M53.3334 73.3328C53.3334 72.5969 52.7361 71.9995 52.0001 71.9995H48.0001V46.6663C48.0001 45.9303 47.4028 45.333 46.6668 45.333H33.3336C32.5976 45.333 32.0003 45.9303 32.0003 46.6663V71.9995H28.0003C27.2643 71.9995 26.667 72.5969 26.667 73.3328V78.6661C26.667 79.402 27.2643 79.9994 28.0003 79.9994C28.7362 79.9994 29.3336 79.402 29.3336 78.6661V74.6661H52.0001C52.7361 74.6662 53.3334 74.0689 53.3334 73.3328ZM45.3334 58.6663H44.0001C43.2642 58.6663 42.6668 59.2636 42.6668 59.9995C42.6668 60.7355 43.2642 61.3328 44.0001 61.3328H45.3334V71.9995H34.6667V47.9996H45.3334V58.6663Z" fill="#FEB409"/>
<path d="M25.3331 45.333H14.6665C13.9306 45.333 13.3332 45.9303 13.3332 46.6663V61.333H11.9998C11.2638 61.333 10.6665 61.9303 10.6665 62.6663C10.6665 63.4022 11.2638 63.9997 11.9998 63.9997H27.9998C28.7357 63.9997 29.3331 63.4024 29.3331 62.6664C29.3331 61.9305 28.7357 61.3331 27.9998 61.3331H26.6665V46.6664C26.6665 45.9304 26.0692 45.333 25.3331 45.333ZM23.9998 61.333H15.9998V55.9997H23.9998V61.333ZM23.9998 53.333H15.9998V47.9997H23.9998V53.333Z" fill="#FEB409"/>
</svg>
