<svg width="179" height="179" viewBox="0 0 179 179" fill="none" xmlns="http://www.w3.org/2000/svg">
<path d="M170.339 0H95.2743C90.4991 0 86.6128 3.88633 86.6128 8.66147V20.2101H92.3871V8.66147C92.3871 7.06753 93.6803 5.77431 95.2743 5.77431H170.339C171.932 5.77431 173.226 7.06753 173.226 8.66147V124.145C173.226 125.739 171.932 127.033 170.339 127.033H106.822V132.807H170.339C175.114 132.807 179 128.92 179 124.145V8.66147C179 3.88633 175.114 0 170.339 0Z" fill="#8D9293" fill-opacity="0.2"/>
<path d="M167.451 11.5488H115.484V51.9684H167.451V11.5488ZM121.258 25.984H124.145C127.33 25.984 129.92 28.5735 129.92 31.7583C129.92 34.9432 127.33 37.5326 124.145 37.5326H121.258V25.984ZM161.678 46.1935H121.258V43.3063H124.145C130.514 43.3063 135.694 38.1268 135.694 31.7577C135.694 25.3886 130.514 20.2091 124.145 20.2091H121.258V17.3219H161.678V46.1935Z" fill="#8D9293" fill-opacity="0.2"/>
<path d="M147.242 43.3067C153.611 43.3067 158.791 38.1272 158.791 31.7581C158.791 25.389 153.611 20.2095 147.242 20.2095C140.873 20.2095 135.693 25.389 135.693 31.7581C135.693 38.1272 140.873 43.3067 147.242 43.3067ZM147.242 25.9838C150.426 25.9838 153.016 28.5733 153.016 31.7581C153.016 34.943 150.427 37.5324 147.242 37.5324C144.057 37.5324 141.468 34.943 141.468 31.7581C141.468 28.5733 144.058 25.9838 147.242 25.9838Z" fill="#8D9293" fill-opacity="0.2"/>
<path d="M158.79 57.7417H153.016V121.258H158.79V57.7417Z" fill="#8D9293" fill-opacity="0.2"/>
<path d="M144.355 57.7417H138.581V121.258H144.355V57.7417Z" fill="#8D9293" fill-opacity="0.2"/>
<path d="M129.92 115.484H124.146V121.258H129.92V115.484Z" fill="#8D9293" fill-opacity="0.2"/>
<path d="M129.92 57.7417H124.146V109.709H129.92V57.7417Z" fill="#8D9293" fill-opacity="0.2"/>
<path d="M95.2743 179H0V17.3223H95.2743C103.234 17.3223 109.71 23.7981 109.71 31.7581V164.565C109.71 172.524 103.234 179 95.2743 179Z" fill="#F1ECE3"/>
<path d="M54.8546 31.7578C32.5662 31.7578 14.4351 49.8889 14.4351 72.1774C14.4351 94.4659 32.5662 112.597 54.8546 112.597C77.1431 112.597 95.2742 94.4659 95.2742 72.1774C95.2742 49.8889 77.1431 31.7578 54.8546 31.7578ZM77.8185 69.2903C77.5093 63.499 76.3604 58.4201 74.6628 54.0899C77.8385 52.6664 79.9805 51.1015 81.3289 49.8774C85.8331 55.2158 88.7433 61.9281 89.355 69.2903H77.8185ZM57.7418 40.2053C60.3779 42.3964 63.7671 45.8262 66.6136 50.7141C64.1394 51.3004 61.2061 51.7363 57.7418 51.8952V40.2053ZM64.9397 39.0388C69.5214 40.4363 73.6903 42.7632 77.2534 45.7916C76.2803 46.6344 74.6549 47.7954 72.1867 48.8837C69.9598 44.8246 67.3879 41.5597 64.9397 39.0388ZM51.9675 40.2053V51.8952C48.5031 51.7363 45.5699 51.3004 43.0956 50.7147C45.9422 45.8268 49.3319 42.397 51.9675 40.2053ZM37.5238 48.8813C35.058 47.793 33.4301 46.635 32.457 45.7892C36.0196 42.7608 40.1915 40.4338 44.7708 39.0363C42.322 41.5597 39.7495 44.8246 37.5238 48.8813ZM51.9675 57.661V69.2903H37.6621C37.9682 64.212 39.0189 59.7891 40.5201 56.0095C43.6728 56.8583 47.4549 57.473 51.9675 57.661ZM51.9675 75.0646V86.6938C47.4549 86.8842 43.6728 87.4966 40.5231 88.3454C39.0189 84.5688 37.9682 80.1429 37.6651 75.0646H51.9675ZM51.9675 92.4591V104.149C49.3313 101.958 45.9422 98.525 43.0956 93.6401C45.5699 93.0538 48.5031 92.6179 51.9675 92.4591ZM44.7702 105.315C40.1885 103.918 36.0196 101.591 32.4564 98.5626C33.4295 97.7198 35.055 96.5588 37.5232 95.4705C39.7495 99.5296 42.322 102.795 44.7702 105.315ZM57.7418 104.152V92.4621C61.2092 92.6209 64.1394 93.0569 66.6167 93.6432C63.7671 98.528 60.3779 101.96 57.7418 104.152ZM72.1891 95.4705C74.6634 96.5618 76.2919 97.7223 77.2589 98.5596C73.6963 101.591 69.5214 103.918 64.9397 105.315C67.3879 102.795 69.9598 99.5266 72.1891 95.4705ZM57.7418 86.6932V75.0646H72.0472C71.741 80.1429 70.6903 84.5658 69.1892 88.3454C66.0365 87.496 62.2544 86.8812 57.7418 86.6932ZM57.7418 69.2903V57.661C62.2544 57.4706 66.0365 56.8583 69.1861 56.0095C70.6903 59.786 71.741 64.212 72.0442 69.2903H57.7418ZM28.3804 49.8774C29.7287 51.1015 31.8708 52.6664 35.0465 54.0899C33.3489 58.4207 32.1969 63.499 31.8908 69.2903H20.3567C20.9691 61.9281 23.8762 55.2152 28.3804 49.8774ZM20.3567 75.0646H31.8938C32.203 80.8559 33.3519 85.9348 35.0495 90.2649C31.8738 91.6885 29.7318 93.2533 28.3834 94.4774C23.8762 89.139 20.9691 82.4262 20.3567 75.0646ZM81.3295 94.4774C79.9811 93.2533 77.8391 91.6885 74.6634 90.2649C76.361 85.9342 77.5129 80.8559 77.8191 75.0646H89.3562C88.7408 82.4262 85.8331 89.139 81.3295 94.4774Z" fill="#121212"/>
<path d="M95.2746 127.033H14.436V132.807H95.2746V127.033Z" fill="#121212"/>
<path d="M95.2743 141.468H89.5V147.242H95.2743V141.468Z" fill="#121212"/>
<path d="M83.7266 141.468H14.436V147.242H83.7266V141.468Z" fill="#121212"/>
</svg>
