<svg width="80" height="80" viewBox="0 0 80 80" fill="none" xmlns="http://www.w3.org/2000/svg">
<path d="M29.3335 49.3333C29.3335 50.0692 29.9308 50.6665 30.6668 50.6665H36.0002C36.7362 50.6665 37.3335 50.0692 37.3335 49.3333V41.3333C37.3335 40.5973 36.7362 40 36.0002 40H30.6669C29.931 40 29.3337 40.5973 29.3337 41.3333V49.3333H29.3335ZM32.0002 42.6667H34.6669V48H32.0002V42.6667Z" fill="#FEB409"/>
<path d="M30.6668 34.6665H36.0001C36.736 34.6665 37.3333 34.0692 37.3333 33.3333V25.3333C37.3333 24.5973 36.736 24 36.0001 24H30.6668C29.9308 24 29.3335 24.5973 29.3335 25.3333V33.3333C29.3333 34.0692 29.9307 34.6665 30.6668 34.6665ZM32.0001 26.6666H34.6668V31.9998H32.0001V26.6666Z" fill="#FEB409"/>
<path d="M20.6866 25.1426L39.9999 13.5547L59.3132 25.1426C59.5279 25.272 59.7652 25.3332 59.9985 25.3332C60.4518 25.3332 60.8932 25.1026 61.1426 24.6865C61.5226 24.0545 61.3172 23.2359 60.6866 22.8572L41.3332 11.2453V2.66671H47.9999V5.33343H43.9999C43.264 5.33343 42.6666 5.93077 42.6666 6.66671C42.6666 7.40265 43.264 7.99999 43.9999 7.99999H49.3332C50.0691 7.99999 50.6665 7.40265 50.6665 6.66671V1.33328C50.6665 0.597343 50.0691 0 49.3332 0H39.9999C39.264 0 38.6666 0.597343 38.6666 1.33328V11.2453L19.3133 22.8573C18.6827 23.2359 18.4774 24.0547 18.8574 24.6867C19.2346 25.3173 20.0558 25.5226 20.6866 25.1426Z" fill="#FEB409"/>
<path d="M14.6667 50.6665C15.4027 50.6665 16 50.0692 16 49.3333V41.3333C16 40.5973 15.4027 40 14.6667 40H9.33328C8.59734 40 8 40.5973 8 41.3333V43.9998C8 44.7358 8.59734 45.3331 9.33328 45.3331C10.0692 45.3331 10.6666 44.7358 10.6666 43.9998V42.6666H13.3333V49.3333C13.3333 50.0692 13.9306 50.6665 14.6667 50.6665Z" fill="#FEB409"/>
<path d="M24.0001 67.9999V29.3333C24.0001 28.5973 23.4027 28 22.6668 28C21.9308 28 21.3335 28.5973 21.3335 29.3333V67.9999C21.3335 68.7359 21.9308 69.3332 22.6668 69.3332C23.4027 69.3332 24.0001 68.7359 24.0001 67.9999Z" fill="#FEB409"/>
<path d="M17.3333 74.6664H62.6666C63.4025 74.6664 63.9998 74.069 63.9998 73.3331C63.9998 72.5972 63.4025 71.9998 62.6666 71.9998H50.6666V58.6666H51.9999C52.7358 58.6666 53.3331 58.0692 53.3331 57.3333C53.3331 56.5973 52.7358 56 51.9999 56H28C27.2641 56 26.6667 56.5973 26.6667 57.3333C26.6667 58.0692 27.2641 58.6666 28 58.6666H29.3333V71.9997H17.3333C16.5973 71.9997 16 72.597 16 73.3329C16 74.0689 16.5973 74.6664 17.3333 74.6664ZM41.3333 66.6664C42.0692 66.6664 42.6666 66.069 42.6666 65.3331C42.6666 64.5972 42.0692 63.9998 41.3333 63.9998V58.6666H48V71.9997H41.3333V66.6664ZM32 58.6664H38.6667V63.9997C37.9308 63.9997 37.3334 64.597 37.3334 65.333C37.3334 66.0689 37.9308 66.6662 38.6667 66.6662V71.9997H32V58.6664Z" fill="#FEB409"/>
<path d="M70.667 57.333H65.3338C64.5978 57.333 64.0005 57.9303 64.0005 58.6663V66.6663C64.0005 67.4022 64.5978 67.9996 65.3338 67.9996H70.667C71.403 67.9996 72.0003 67.4022 72.0003 66.6663V58.6663C72.0003 57.9303 71.403 57.333 70.667 57.333ZM69.3336 65.333H66.6669V59.9997H69.3336V65.333Z" fill="#FEB409"/>
<path d="M70.667 41.333H65.3338C64.5978 41.333 64.0005 41.9304 64.0005 42.6663V50.6663C64.0005 51.4022 64.5978 51.9996 65.3338 51.9996H70.667C71.403 51.9996 72.0003 51.4022 72.0003 50.6663V42.6663C72.0003 41.9304 71.403 41.333 70.667 41.333ZM69.3336 49.333H66.6669V43.9997H69.3336V49.333Z" fill="#FEB409"/>
<path d="M67.9998 77.333H11.9998C11.2638 77.333 10.6665 77.9303 10.6665 78.6663C10.6665 79.4022 11.2638 79.9997 11.9998 79.9997H67.9998C68.7357 79.9997 69.3331 79.4024 69.3331 78.6664C69.3331 77.9305 68.7357 77.333 67.9998 77.333Z" fill="#FEB409"/>
<path d="M78.6668 29.333C77.9308 29.333 77.3335 29.9304 77.3335 30.6663V31.9996H62.6668C61.9308 31.9996 61.3335 32.5969 61.3335 33.3328C61.3335 34.0688 61.9308 34.6661 62.6668 34.6661H77.3335V78.6661C77.3335 79.402 77.9308 79.9993 78.6668 79.9993C79.4027 79.9993 80.0001 79.402 80.0001 78.6661V30.6661C80.0001 29.9304 79.4027 29.333 78.6668 29.333Z" fill="#FEB409"/>
<path d="M42.6665 49.3333C42.6665 50.0692 43.2639 50.6665 43.9998 50.6665H49.3331C50.069 50.6665 50.6663 50.0692 50.6663 49.3333V41.3333C50.6663 40.5973 50.069 40 49.3331 40H43.9998C43.2639 40 42.6665 40.5973 42.6665 41.3333V49.3333ZM45.3331 42.6667H47.9998V48H45.3331V42.6667Z" fill="#FEB409"/>
<path d="M13.3333 65.3333C13.3333 65.16 13.2573 48 6.66656 48C0.0759375 48 0 65.16 0 65.3333C0 68.5532 2.29469 71.2453 5.33328 71.8653V78.6667C5.33328 79.4026 5.93062 80 6.66656 80C7.4025 80 7.99984 79.4026 7.99984 78.6667V71.8653C11.0386 71.2453 13.3333 68.5532 13.3333 65.3333ZM6.66672 69.3333C4.46141 69.3333 2.66672 67.5386 2.66672 65.3333C2.66672 58.6906 4.45078 50.6666 6.66672 50.6666C8.88266 50.6666 10.6667 58.6906 10.6667 65.3333C10.6667 67.5386 8.87203 69.3333 6.66672 69.3333Z" fill="#FEB409"/>
<path d="M58.6666 67.9992V27.9993C58.6666 27.2634 58.0692 26.666 57.3333 26.666C56.5973 26.666 56 27.2634 56 27.9993V67.9992C56 68.7352 56.5973 69.3325 57.3333 69.3325C58.0692 69.3325 58.6666 68.7352 58.6666 67.9992Z" fill="#FEB409"/>
<path d="M43.9998 34.6665H49.3331C50.069 34.6665 50.6663 34.0692 50.6663 33.3333V25.3333C50.6663 24.5973 50.069 24 49.3331 24H43.9998C43.2639 24 42.6665 24.5973 42.6665 25.3333V33.3333C42.6665 34.0692 43.2639 34.6665 43.9998 34.6665ZM45.3331 26.6666H47.9998V31.9998H45.3331V26.6666Z" fill="#FEB409"/>
<path d="M1.33328 46.6671C2.06922 46.6671 2.66656 46.0697 2.66656 45.3338V34.6671H17.3333C18.0692 34.6671 18.6666 34.0698 18.6666 33.3338C18.6666 32.5979 18.0692 32.0005 17.3333 32.0005H2.66672V30.6673C2.66672 29.9313 2.06938 29.334 1.33344 29.334C0.5975 29.334 0 29.931 0 30.6671V45.3338C0 46.0697 0.597344 46.6671 1.33328 46.6671Z" fill="#FEB409"/>
</svg>
