<svg width="80" height="80" viewBox="0 0 80 80" fill="none" xmlns="http://www.w3.org/2000/svg">
<path d="M40.0002 10.667C23.0908 10.667 9.3335 24.4243 9.3335 41.3337C9.3335 58.243 23.0908 72.0002 40.0002 72.0002C56.9096 72.0002 70.6669 58.2429 70.6669 41.3335C70.6669 24.4242 56.9096 10.667 40.0002 10.667ZM40.0002 69.3335C24.5616 69.3335 12.0002 56.7735 12.0002 41.3335C12.0002 25.8935 24.5616 13.3336 40.0002 13.3336C55.4402 13.3336 68.0002 25.8935 68.0002 41.3335C68.0002 56.7735 55.4402 69.3335 40.0002 69.3335Z" fill="#FEB409"/>
<path d="M52.8692 13.5006C52.7465 13.4447 52.6171 13.4059 52.4839 13.3886L52.1759 13.3472C51.7012 13.2792 51.2306 13.4778 50.9412 13.8578C50.6506 14.2378 50.5853 14.7419 50.7692 15.1831C51.6851 17.3725 52.7759 21.7978 51.3812 22.8137L48.2906 24.0496C45.9506 24.9856 44.3106 27.135 44.0106 29.667L43.9906 29.8203C43.9173 30.3509 43.4838 30.495 43.3012 30.5323C42.9706 30.599 42.5292 30.519 42.2759 30.095L40.9518 27.8882C40.4651 27.0762 39.5665 26.5935 38.6332 26.6509C37.6932 26.6989 36.8626 27.2576 36.4626 28.1109C35.272 30.6535 33.7773 34.3229 33.4146 37.3615C33.3026 38.3042 33.4706 39.2562 33.8999 40.1162L35.4373 43.1909C35.9826 44.2788 36.8187 45.2015 37.8573 45.8576C38.8146 46.4616 40.5893 47.6802 41.7199 49.0456C43.0067 50.6015 44.7399 51.607 46.6013 51.907C46.5267 54.4043 46.6907 58.5096 48.3907 60.3229C48.9854 60.9562 49.7307 61.3043 50.556 61.3322C50.7054 61.3522 50.9681 61.379 51.3081 61.379C52.2974 61.379 53.9495 61.1549 55.4601 59.9069C57.5642 58.1684 58.6428 55.1096 58.6668 50.8149L60.5762 42.2202L61.3015 43.4282C61.8909 44.4109 62.8762 45.1015 64.0015 45.3229C65.1268 45.5443 66.3001 45.2749 67.2188 44.587L70.1335 42.4002C70.4695 42.1482 70.6668 41.7535 70.6668 41.3335C70.6665 29.4312 63.6798 18.5059 52.8692 13.5006ZM65.6184 42.4538C65.2984 42.6924 64.9051 42.7818 64.5143 42.7059C64.1223 42.6299 63.7929 42.3979 63.5876 42.0553L62.2049 39.7499C61.749 38.9885 60.8903 38.5885 60.0103 38.7313C59.1343 38.874 58.4435 39.526 58.2503 40.3927L56.0317 50.378C56.0103 50.4727 55.9996 50.5701 55.9996 50.6674C55.9996 54.1301 55.237 56.6048 53.7943 57.8248C52.4757 58.9394 50.9676 58.698 50.9196 58.6915C50.7476 58.6594 50.617 58.7982 50.337 58.4994C49.5063 57.6127 49.0863 54.518 49.3157 50.9715C49.3424 50.5501 49.1917 50.1301 48.9024 49.8221C48.6118 49.5115 48.1984 49.3341 47.7718 49.3341C46.2771 49.3341 44.8198 48.6101 43.7732 47.3474C42.4759 45.7781 40.6132 44.4448 39.2799 43.6034C38.6532 43.2074 38.1493 42.6527 37.8226 41.9993L36.2853 38.9246C36.0893 38.5326 36.012 38.1006 36.0626 37.6767C36.3893 34.9487 37.864 31.434 38.7812 29.4514L39.9906 31.466C40.7906 32.7993 42.2985 33.454 43.8373 33.1434C45.3293 32.8381 46.4279 31.6767 46.6332 30.182L46.6612 29.9714C46.8438 28.4181 47.8479 27.0981 49.2812 26.5246L52.4959 25.2393C52.5626 25.2126 52.6292 25.1793 52.6918 25.142C55.2251 23.6034 54.8971 19.9206 54.2318 17.2247C62.4892 22.114 67.7612 31.002 67.9918 40.674L65.6184 42.4538Z" fill="#FEB409"/>
<path d="M33.7136 59.8282L32.9056 59.0215C31.9256 58.0401 30.7815 57.2668 29.507 56.7201L25.395 54.9575C23.7376 54.2468 22.667 52.6228 22.667 50.8189V48.8122C22.667 47.5842 22.0644 46.4348 21.055 45.7348C20.0456 45.0362 18.7564 44.8775 17.607 45.3068L11.2044 47.7068C10.5617 47.9482 10.2058 48.6375 10.3844 49.3015C13.3856 60.4789 22.6537 69.1574 33.9964 71.4095C34.0844 71.4268 34.1723 71.4348 34.2578 71.4348C34.8431 71.4348 35.3737 71.0495 35.5405 70.4681L36.0284 68.7587C36.935 65.5843 36.0483 62.1617 33.7136 59.8282ZM33.4644 68.0256L33.3203 68.527C23.903 66.2137 16.227 59.0229 13.3003 49.7697L18.543 47.8043C18.8803 47.6764 19.2415 47.7217 19.5362 47.927C19.8309 48.1311 20.0003 48.4537 20.0003 48.8123V50.819C20.0003 53.6911 21.7056 56.2776 24.3444 57.4084L28.4564 59.171C29.419 59.5843 30.2817 60.1684 31.0205 60.907L31.8284 61.7137C33.4776 63.3629 34.1056 65.7815 33.4644 68.0256Z" fill="#FEB409"/>
<path d="M26.0224 15.2918C25.6051 14.7771 24.873 14.6477 24.3037 14.9877C15.4984 20.2451 9.91836 29.4798 9.37836 39.6891C9.35429 40.1411 9.56101 40.5744 9.92773 40.8397C10.1584 41.0077 10.4318 41.093 10.7091 41.093C10.8732 41.093 11.0371 41.0624 11.1918 41.0036L19.4624 37.7396C21.4438 36.9463 22.4665 34.741 21.7918 32.7169C21.6277 32.2222 21.7545 31.6863 22.1224 31.3169L25.9651 27.4743C27.2771 26.1637 27.9998 24.4196 27.9998 22.5637V20.829C27.9998 18.8291 27.2971 16.8624 26.0224 15.2918ZM25.333 22.5624C25.333 23.7065 24.8877 24.7798 24.0784 25.5877L20.2357 29.4304C19.149 30.5183 18.7757 32.0997 19.2624 33.5583C19.4918 34.2451 19.1438 34.993 18.473 35.261L12.2304 37.7357C13.2663 29.6704 17.7651 22.453 24.601 17.9477C25.0784 18.8345 25.333 19.8263 25.333 20.8277V22.5624Z" fill="#FEB409"/>
<path d="M39.9998 0C38.6212 0 37.2305 0.0706249 35.8665 0.210625C35.1345 0.285312 34.6012 0.941249 34.6759 1.67328C34.7465 2.36 35.3265 2.87062 36.0012 2.87062C36.0465 2.87062 36.0933 2.86796 36.1386 2.86265C37.4119 2.73328 38.7106 2.66671 40 2.66671C40.7359 2.66671 41.3333 2.06937 41.3333 1.33344C41.3333 0.597499 40.7358 0 39.9998 0Z" fill="#FEB409"/>
<path d="M3.19203 46.2745C2.84406 44.2157 2.66672 42.1051 2.66672 39.9998C2.66672 39.5545 2.67469 39.1104 2.69078 38.6665C2.71609 37.9306 2.14016 37.3145 1.40406 37.2879C0.674688 37.2493 0.0520312 37.8386 0.0254687 38.5746C0.00796875 39.0478 0 39.5225 0 39.9998C0 42.2531 0.189375 44.5145 0.561406 46.7198C0.672031 47.3704 1.23609 47.8304 1.87469 47.8304C1.94938 47.8304 2.02406 47.8251 2.1 47.8118C2.82531 47.6892 3.31469 47.001 3.19203 46.2745Z" fill="#FEB409"/>
<path d="M8.72289 60.3922C7.3307 58.2614 6.15477 55.9828 5.22805 53.6187C4.95867 52.9334 4.18539 52.5947 3.50008 52.864C2.81477 53.132 2.47602 53.9055 2.74539 54.592C3.73867 57.1253 4.99867 59.5667 6.48945 61.8493C6.74539 62.2414 7.17211 62.4534 7.6068 62.4534C7.85742 62.4534 8.11086 62.3828 8.33617 62.2375C8.95211 61.8348 9.12555 61.0081 8.72289 60.3922Z" fill="#FEB409"/>
<path d="M5.65895 22.1628C4.99489 21.8469 4.19895 22.1282 3.88161 22.7922C2.70692 25.2522 1.78426 27.8416 1.13895 30.4869C0.96442 31.2028 1.40176 31.9242 2.1177 32.0988C2.22442 32.1241 2.33098 32.1361 2.43505 32.1361C3.03505 32.1361 3.58036 31.7267 3.72973 31.1188C4.33239 28.6508 5.19239 26.2347 6.28833 23.9402C6.60567 23.2749 6.32426 22.4802 5.65895 22.1628Z" fill="#FEB409"/>
<path d="M15.5893 9.98251C15.1053 9.42782 14.264 9.36923 13.7079 9.85454C11.6559 11.6466 9.77996 13.6545 8.13324 15.8212C7.68792 16.4066 7.8012 17.2439 8.38792 17.6892C8.62917 17.8733 8.91199 17.9612 9.19324 17.9612C9.59589 17.9612 9.99324 17.7786 10.2559 17.4345C11.7932 15.4106 13.5453 13.5359 15.4614 11.8639C16.016 11.3798 16.0734 10.5372 15.5893 9.98251Z" fill="#FEB409"/>
<path d="M33.4946 76.7701C30.9893 76.3287 28.5225 75.6287 26.1652 74.6875C25.4799 74.4142 24.7052 74.7461 24.4319 75.4315C24.1586 76.1142 24.4919 76.8901 25.176 77.1636C27.7027 78.1729 30.3466 78.9236 33.0319 79.3956C33.1093 79.4089 33.1866 79.4156 33.264 79.4156C33.8999 79.4156 34.4627 78.9597 34.5772 78.3143C34.704 77.5889 34.2199 76.8981 33.4946 76.7701Z" fill="#FEB409"/>
<path d="M50.2629 77.3142C50.0922 76.5968 49.3708 76.1568 48.6576 76.3248C46.1935 76.9101 43.6508 77.2448 41.099 77.3181C40.363 77.3381 39.783 77.9528 39.8043 78.6887C39.8257 79.4113 40.4176 79.9834 41.1363 79.9834C41.1483 79.9834 41.1616 79.9834 41.1763 79.9821C43.9096 79.9035 46.6337 79.5462 49.2737 78.9195C49.9896 78.7488 50.4322 78.0301 50.2629 77.3142Z" fill="#FEB409"/>
<path d="M29.5375 2.74151C29.3148 2.04011 28.5642 1.65355 27.8628 1.8748C25.2681 2.70011 22.7481 3.79886 20.3734 5.13885C19.732 5.50151 19.5067 6.31479 19.8681 6.9562C20.1134 7.38948 20.5655 7.63354 21.0308 7.63354C21.2522 7.63354 21.4775 7.5776 21.6841 7.46151C23.8987 6.21088 26.2508 5.18557 28.6708 4.4162C29.3722 4.19354 29.7601 3.44292 29.5375 2.74151Z" fill="#FEB409"/>
<path d="M19.4134 71.1474C17.2961 69.746 15.3134 68.1194 13.5188 66.3141C13.0002 65.7927 12.1547 65.7888 11.6334 66.3088C11.112 66.8288 11.1094 67.6728 11.6281 68.1955C13.5508 70.1288 15.6748 71.8714 17.9414 73.3728C18.1681 73.5222 18.4241 73.5942 18.6761 73.5942C19.1081 73.5942 19.532 73.3849 19.7881 72.9956C20.1948 72.3821 20.0269 71.5541 19.4134 71.1474Z" fill="#FEB409"/>
<path d="M61.1417 72.4066C60.7591 71.7772 59.9391 71.5746 59.3097 71.9572C58.2137 72.6213 57.0697 73.2346 55.9097 73.7826C55.2444 74.0972 54.9577 74.8905 55.2723 75.5572C55.5003 76.0399 55.9791 76.3225 56.4791 76.3225C56.6697 76.3225 56.8631 76.2811 57.0484 76.1946C58.2925 75.6079 59.5178 74.9505 60.6925 74.2386C61.3217 73.8558 61.523 73.0358 61.1417 72.4066Z" fill="#FEB409"/>
<path d="M79.7188 59.1817C79.2655 58.5991 78.4268 58.495 77.8482 58.947L65.8482 68.2803C65.5241 68.5336 65.3335 68.9217 65.3335 69.3336V73.3336C65.3335 74.0695 65.9308 74.6669 66.6668 74.6669C67.4027 74.6669 68.0001 74.0695 68.0001 73.3336V69.9856L79.4841 61.0523C80.0654 60.6005 80.1707 59.7631 79.7188 59.1817Z" fill="#FEB409"/>
<path d="M67.0897 68.0673L63.0897 66.734C62.3883 66.498 61.635 66.8793 61.403 67.5766C61.1697 68.2752 61.5471 69.0299 62.2457 69.2633L66.2457 70.5966C66.3857 70.6433 66.5283 70.666 66.6671 70.666C67.2257 70.666 67.7457 70.3127 67.9324 69.754C68.1657 69.0552 67.7883 68.3005 67.0897 68.0673Z" fill="#FEB409"/>
<path d="M77.2372 70.1699L74.5705 63.5032C74.4625 63.2326 74.2678 63.0046 74.0184 62.8553L67.3517 58.8553C66.7197 58.4767 65.9011 58.6806 65.5223 59.3126C65.1436 59.9446 65.3476 60.7632 65.9797 61.142L72.2611 64.9113L74.7611 71.162C74.9704 71.6834 75.4704 72.0006 75.9997 72.0006C76.165 72.0006 76.3329 71.9699 76.4944 71.9032C77.1786 71.6299 77.5104 70.8538 77.2372 70.1699Z" fill="#FEB409"/>
</svg>
